<svg width="160" height="160" viewBox="0 0 160 160" fill="none" xmlns="http://www.w3.org/2000/svg">
<g clip-path="url(#clip0_3094_117517)">
<path d="M60 0H0V60H60V0ZM50 50H10V10H50V50Z" fill="#212121"/>
<path d="M20 20H40V40H20V20ZM0 160H60V100H0V160ZM10 110H50V150H10V110Z" fill="#212121"/>
<path d="M20 120H40V140H20V120ZM100 0V60H160V0H100ZM150 50H110V10H150V50Z" fill="#212121"/>
<path d="M120 20H140V40H120V20ZM20 70H0V90H30V80H20V70ZM70 90H90V110H70V90ZM30 70H50V80H30V70ZM90 120H70V130H80V140H90V130V120ZM60 70V80H50V90H70V70H60ZM80 40H90V60H80V40ZM90 80V90H110V70H80V80H90ZM70 60H80V70H70V60ZM90 140H110V160H90V140ZM70 140H80V160H70V140ZM90 110H100V120H90V110ZM90 30V10H80V0H70V40H80V30H90ZM120 140H130V160H120V140ZM120 120H140V130H120V120ZM110 130H120V140H110V130ZM100 120H110V130H100V120ZM140 100V110H150V120H160V100H150H140ZM150 130H140V160H160V140H150V130ZM100 100V110H130V90H110V100H100ZM120 70V80H140V90H160V70H140H120Z" fill="#212121"/>
</g>
<defs>
<clipPath id="clip0_3094_117517">
<rect width="160" height="160" fill="white"/>
</clipPath>
</defs>
</svg>
