<svg width="501" height="440" viewBox="0 0 501 440" fill="none" xmlns="http://www.w3.org/2000/svg">
<path fill-rule="evenodd" clip-rule="evenodd" d="M32.4662 190.736C49.3337 190.646 63.1512 204.316 63.2417 221.183C63.3321 238.051 49.662 251.868 32.7945 251.959C15.9271 252.049 2.1095 238.379 2.01903 221.512C1.92857 204.644 15.5987 190.827 32.4662 190.736Z" fill="#D6DE21" fill-opacity="0.2"/>
<path fill-rule="evenodd" clip-rule="evenodd" d="M468.732 188.398C485.599 188.307 499.417 201.977 499.507 218.845C499.598 235.712 485.928 249.53 469.06 249.62C452.193 249.711 438.375 236.041 438.285 219.173C437.986 202.307 451.656 188.489 468.732 188.398Z" fill="#D6DE21" fill-opacity="0.2"/>
<path fill-rule="evenodd" clip-rule="evenodd" d="M372.975 1.28C332.784 1.49555 300.473 34.1553 300.688 74.3456C300.796 94.3367 309.014 112.41 322.205 125.667C338.744 142.03 346.973 161.977 347.097 185.092L347.456 252.145C347.55 269.638 326.773 278.495 314.216 266.901L180.227 134.342C163.481 118.188 155.252 98.241 154.92 75.1274C154.705 34.9371 122.045 2.62579 81.8546 2.84134C41.6642 3.05689 9.14469 35.7177 9.36024 75.9081C9.57579 116.098 42.2355 148.41 82.4259 148.194C105.541 148.07 125.576 156.293 142.116 172.655L166.401 196.682C179.59 209.73 179.705 231.179 166.657 244.369L142.63 268.654C126.268 285.193 106.528 293.421 83.2066 293.754C43.0162 293.97 10.706 326.838 10.9205 366.82C11.136 407.01 43.7957 439.321 83.9861 439.106C124.176 438.89 156.488 406.231 156.272 366.04C156.148 342.926 164.371 322.89 180.733 306.351L204.76 282.065C217.808 268.876 239.257 268.761 252.447 281.809L276.732 305.836C293.271 322.198 301.499 341.938 301.832 365.26C302.048 405.45 334.916 437.76 374.898 437.546C415.088 437.33 447.4 404.67 447.184 364.48C447.077 344.489 438.858 326.416 425.668 313.159C409.337 296.795 400.9 276.848 400.776 253.734L400.406 184.806C400.282 161.691 408.505 141.656 424.659 125.118C437.708 111.928 445.732 93.7676 445.624 73.5683C445.825 33.3757 413.165 1.06445 372.975 1.28Z" fill="#D6DE21" fill-opacity="0.2"/>
</svg>
