<svg width="494" height="471" viewBox="0 0 494 471" fill="none" xmlns="http://www.w3.org/2000/svg">
<mask id="mask0_6008_30855" style="mask-type:alpha" maskUnits="userSpaceOnUse" x="0" y="0" width="494" height="471">
<rect width="494" height="471" fill="#D9D9D9"/>
</mask>
<g mask="url(#mask0_6008_30855)">
<path fill-rule="evenodd" clip-rule="evenodd" d="M227.271 274.087C241.157 264.923 259.937 268.771 269.101 282.657C278.264 296.542 274.416 315.323 260.531 324.486C246.645 333.65 227.865 329.802 218.701 315.916C209.366 302.144 213.214 283.363 227.271 274.087Z" fill="#D6DE21" fill-opacity="0.2"/>
<path fill-rule="evenodd" clip-rule="evenodd" d="M47.3407 171.104C14.2552 192.938 5.16066 237.329 26.9945 270.414C37.8548 286.871 54.3827 297.373 72.4228 301.218C94.9027 305.823 112.449 317.868 125.006 336.897L161.433 392.096C170.936 406.496 158.545 425.009 141.924 422.197L-40.1917 384.885C-62.7299 380.564 -80.2758 368.519 -93.0045 349.604C-114.838 316.519 -159.229 307.424 -192.314 329.258C-225.4 351.092 -234.666 395.596 -212.832 428.681C-190.998 461.766 -146.608 470.861 -113.522 449.027C-94.4938 436.47 -73.5116 432.467 -51.0317 437.072L-18.0233 443.835C-0.0963014 447.508 11.5559 465.165 7.88311 483.092L1.12049 516.1C-3.48511 538.58 -15.3587 556.013 -34.4454 568.855C-67.5308 590.689 -76.5123 635.251 -54.7916 668.165C-32.9578 701.25 11.4328 710.345 44.5183 688.511C77.6037 666.677 86.6983 622.286 64.8645 589.201C52.3073 570.173 48.304 549.19 52.9096 526.711L59.6722 493.702C63.3451 475.775 81.0021 464.123 98.9291 467.796L131.938 474.558C154.417 479.164 171.85 491.037 184.692 510.124C206.526 543.21 251.088 552.191 284.002 530.47C317.087 508.637 326.182 464.246 304.348 431.161C293.488 414.704 276.96 404.201 258.92 400.357C236.611 395.638 218.894 383.707 206.337 364.678L168.891 307.936C156.334 288.907 152.331 267.925 156.765 245.558C160.438 227.631 157.281 208.305 146.308 191.677C124.817 158.365 80.4261 149.271 47.3407 171.104Z" fill="#D6DE21" fill-opacity="0.2"/>
</g>
</svg>
