<svg width="124" height="32" viewBox="0 0 124 32" fill="none" xmlns="http://www.w3.org/2000/svg">
<path fill-rule="evenodd" clip-rule="evenodd" d="M4.24535 13.7622C5.48258 13.7622 6.49069 14.7703 6.49069 16.0076C6.49069 17.2448 5.48258 18.2529 4.24535 18.2529C3.00811 18.2529 2 17.2448 2 16.0076C2 14.7703 3.00811 13.7622 4.24535 13.7622Z" fill="#D6DE21"/>
<path fill-rule="evenodd" clip-rule="evenodd" d="M36.2455 13.7622C37.4827 13.7622 38.4909 14.7703 38.4909 16.0076C38.4909 17.2448 37.4827 18.2529 36.2455 18.2529C35.0083 18.2529 34.0002 17.2448 34.0002 16.0076C33.9849 14.7703 34.993 13.7622 36.2455 13.7622Z" fill="#D6DE21"/>
<path fill-rule="evenodd" clip-rule="evenodd" d="M29.2935 0C26.3455 0 23.9627 2.38282 23.9627 5.33079C23.9627 6.79714 24.5584 8.12601 25.5207 9.10358C26.7274 10.3103 27.3231 11.7766 27.3231 13.4721V18.3905C27.3231 19.6735 25.7957 20.315 24.8792 19.4597L15.1035 9.68401C13.8816 8.4926 13.2859 7.02625 13.2706 5.33079C13.2706 2.38282 10.8878 0 7.93981 0C4.99184 0 2.59375 2.38282 2.59375 5.33079C2.59375 8.27876 4.97657 10.6616 7.92454 10.6616C9.62 10.6616 11.0864 11.2726 12.293 12.4792L14.0649 14.2511C15.0272 15.2134 15.0272 16.7866 14.0649 17.7489L12.293 19.5208C11.0864 20.7274 9.63528 21.3232 7.92454 21.3384C4.97657 21.3384 2.59375 23.7365 2.59375 26.6692C2.59375 29.6172 4.97657 32 7.92454 32C10.8725 32 13.2553 29.6172 13.2553 26.6692C13.2553 24.9737 13.8663 23.5074 15.073 22.3007L16.8448 20.5289C17.8071 19.5666 19.3804 19.5666 20.3427 20.5289L22.1145 22.3007C23.3212 23.5074 23.9169 24.9585 23.9322 26.6692C23.9322 29.6172 26.3303 32 29.263 32C32.2109 32 34.5938 29.6172 34.5938 26.6692C34.5938 25.2029 33.998 23.874 33.0358 22.8964C31.8443 21.6897 31.2334 20.2234 31.2334 18.5279V13.4721C31.2334 11.7766 31.8443 10.3103 33.0358 9.10358C33.998 8.14129 34.5938 6.81241 34.5938 5.33079C34.6243 2.38282 32.2415 0 29.2935 0Z" fill="#212121"/>
<path d="M60.3162 6.2H63.2922V23H60.4362L51.6042 11.096V23H48.6042V6.2H51.4602L60.3162 18.104V6.2ZM65.9823 16.904C65.9823 13.328 68.5983 10.448 72.4143 10.448C76.3023 10.448 78.8463 13.328 78.8463 16.904C78.8463 20.456 76.3023 23.336 72.4143 23.336C68.5983 23.336 65.9823 20.456 65.9823 16.904ZM75.8463 16.904C75.8463 14.624 74.5023 13.112 72.4143 13.112C70.3263 13.112 68.9823 14.624 68.9823 16.904C68.9823 19.136 70.3263 20.672 72.4143 20.672C74.5023 20.672 75.8463 19.136 75.8463 16.904ZM90.2228 5.432H93.1508V23H90.2708V21.056C89.5748 22.496 87.9428 23.336 86.0948 23.336C82.8548 23.336 80.4788 20.672 80.4788 16.904C80.4788 13.112 82.8548 10.448 86.0948 10.448C87.9188 10.448 89.4788 11.288 90.2228 12.656V5.432ZM90.3428 16.904C90.3428 14.624 88.9988 13.112 86.9108 13.112C84.8228 13.112 83.4788 14.624 83.4788 16.904C83.4788 19.136 84.8228 20.672 86.9108 20.672C88.9988 20.672 90.3428 19.136 90.3428 16.904ZM107.633 17.768H98.5373C98.8493 19.712 100.121 20.792 102.137 20.792C103.529 20.792 104.657 20.288 105.545 19.256L107.297 20.984C106.145 22.496 104.273 23.336 102.041 23.336C98.1533 23.336 95.5613 20.768 95.5613 16.952C95.5613 13.16 98.0813 10.448 101.753 10.448C105.281 10.448 107.705 12.92 107.705 16.64C107.705 17 107.681 17.384 107.633 17.768ZM98.5373 15.776H104.777C104.657 13.976 103.529 12.992 101.777 12.992C99.9773 12.992 98.8493 14.024 98.5373 15.776ZM109.02 21.008L110.604 19.16C111.564 20.216 113.052 20.84 114.612 20.84C115.98 20.84 116.772 20.336 116.772 19.544C116.772 18.896 116.292 18.488 115.068 18.2L113.076 17.744C110.58 17.168 109.452 16.016 109.452 14.288C109.452 11.984 111.396 10.448 114.492 10.448C116.628 10.448 118.452 11.168 119.508 12.392L117.948 14.288C116.916 13.4 115.74 12.944 114.42 12.944C113.076 12.944 112.38 13.424 112.38 14.192C112.38 14.792 112.836 15.128 114.084 15.416L116.196 15.92C118.692 16.472 119.7 17.6 119.7 19.352C119.7 21.824 117.78 23.336 114.588 23.336C112.188 23.336 110.148 22.448 109.02 21.008Z" fill="#212121"/>
</svg>
