<svg xmlns="http://www.w3.org/2000/svg" width="37" height="32" viewBox="0 0 37 32" fill="none">
<path fillRule="evenodd" clipRule="evenodd" d="M2.24535 13.7623C3.48258 13.7623 4.49069 14.7704 4.49069 16.0077C4.49069 17.2449 3.48258 18.253 2.24535 18.253C1.00811 18.253 0 17.2449 0 16.0077C0 14.7704 1.00811 13.7623 2.24535 13.7623Z" fill="black"/>
<path fillRule="evenodd" clipRule="evenodd" d="M34.2453 13.7623C35.4825 13.7623 36.4906 14.7704 36.4906 16.0077C36.4906 17.2449 35.4825 18.253 34.2453 18.253C33.008 18.253 31.9999 17.2449 31.9999 16.0077C31.9847 14.7704 32.9928 13.7623 34.2453 13.7623Z" fill="black"/>
<path fillRule="evenodd" clipRule="evenodd" d="M27.2955 0C24.3475 0 21.9647 2.38282 21.9647 5.33079C21.9647 6.79714 22.5604 8.12601 23.5227 9.10358C24.7294 10.3103 25.3251 11.7766 25.3251 13.4721V18.3905C25.3251 19.6735 23.7976 20.315 22.8811 19.4597L13.1055 9.68401C11.8835 8.4926 11.2878 7.02625 11.2726 5.33079C11.2726 2.38282 8.88974 0 5.94176 0C2.99379 0 0.595703 2.38282 0.595703 5.33079C0.595703 8.27876 2.97852 10.6616 5.92649 10.6616C7.62196 10.6616 9.0883 11.2726 10.295 12.4792L12.0668 14.2511C13.0291 15.2134 13.0291 16.7866 12.0668 17.7489L10.295 19.5208C9.0883 20.7274 7.63723 21.3232 5.92649 21.3384C2.97852 21.3384 0.595703 23.7365 0.595703 26.6692C0.595703 29.6172 2.97852 32 5.92649 32C8.87446 32 11.2573 29.6172 11.2573 26.6692C11.2573 24.9737 11.8683 23.5074 13.0749 22.3007L14.8468 20.5289C15.8091 19.5666 17.3823 19.5666 18.3446 20.5289L20.1165 22.3007C21.3231 23.5074 21.9189 24.9585 21.9341 26.6692C21.9341 29.6172 24.3322 32 27.2649 32C30.2129 32 32.5957 29.6172 32.5957 26.6692C32.5957 25.2029 32 23.874 31.0377 22.8964C29.8463 21.6897 29.2353 20.2234 29.2353 18.5279V13.4721C29.2353 11.7766 29.8463 10.3103 31.0377 9.10358C32 8.14129 32.5957 6.81241 32.5957 5.33079C32.6263 2.38282 30.2434 0 27.2955 0Z" fill="black"/>
</svg>