<svg width="41" height="32" viewBox="0 0 41 32" fill="none" xmlns="http://www.w3.org/2000/svg">
<path fill-rule="evenodd" clip-rule="evenodd" d="M4.24535 13.7625C5.48258 13.7625 6.49069 14.7706 6.49069 16.0078C6.49069 17.245 5.48258 18.2531 4.24535 18.2531C3.00811 18.2531 2 17.245 2 16.0078C2 14.7706 3.00811 13.7625 4.24535 13.7625Z" fill="#D6DE21"/>
<path fill-rule="evenodd" clip-rule="evenodd" d="M36.2455 13.7625C37.4827 13.7625 38.4909 14.7706 38.4909 16.0078C38.4909 17.245 37.4827 18.2531 36.2455 18.2531C35.0083 18.2531 34.0002 17.245 34.0002 16.0078C33.9849 14.7706 34.993 13.7625 36.2455 13.7625Z" fill="#D6DE21"/>
<path fill-rule="evenodd" clip-rule="evenodd" d="M29.2955 0C26.3475 0 23.9647 2.38282 23.9647 5.33079C23.9647 6.79714 24.5604 8.12601 25.5227 9.10358C26.7294 10.3103 27.3251 11.7766 27.3251 13.4721V18.3905C27.3251 19.6735 25.7976 20.315 24.8811 19.4597L15.1055 9.68401C13.8835 8.4926 13.2878 7.02625 13.2726 5.33079C13.2726 2.38282 10.8897 0 7.94177 0C4.99379 0 2.5957 2.38282 2.5957 5.33079C2.5957 8.27876 4.97852 10.6616 7.92649 10.6616C9.62196 10.6616 11.0883 11.2726 12.295 12.4792L14.0668 14.2511C15.0291 15.2134 15.0291 16.7866 14.0668 17.7489L12.295 19.5208C11.0883 20.7274 9.63723 21.3232 7.92649 21.3384C4.97852 21.3384 2.5957 23.7365 2.5957 26.6692C2.5957 29.6172 4.97852 32 7.92649 32C10.8745 32 13.2573 29.6172 13.2573 26.6692C13.2573 24.9737 13.8683 23.5074 15.0749 22.3007L16.8468 20.5289C17.8091 19.5666 19.3823 19.5666 20.3446 20.5289L22.1165 22.3007C23.3231 23.5074 23.9189 24.9585 23.9341 26.6692C23.9341 29.6172 26.3322 32 29.2649 32C32.2129 32 34.5957 29.6172 34.5957 26.6692C34.5957 25.2029 34 23.874 33.0377 22.8964C31.8463 21.6897 31.2353 20.2234 31.2353 18.5279V13.4721C31.2353 11.7766 31.8463 10.3103 33.0377 9.10358C34 8.14129 34.5957 6.81241 34.5957 5.33079C34.6263 2.38282 32.2434 0 29.2955 0Z" fill="#212121"/>
</svg>
