<svg width="672" height="181" viewBox="0 0 672 181" fill="none" xmlns="http://www.w3.org/2000/svg">
<mask id="mask0_6041_31054" style="mask-type:alpha" maskUnits="userSpaceOnUse" x="0" y="0" width="672" height="181">
<rect width="672" height="181" fill="white"/>
</mask>
<g mask="url(#mask0_6041_31054)">
<rect width="1224" height="181.053" transform="translate(-276)" fill="white"/>
<path fillRule="evenodd" clipRule="evenodd" d="M30.2042 59.6611C29.2778 58.4059 28.6963 56.9063 28.9242 55.2876C29.5808 50.6234 36.0334 52.1108 37.1372 54.5652C38.241 57.0196 37.6705 63.0098 36.0007 63.3179C35.3347 63.4408 33.97 62.9303 32.6115 61.9763L33.0614 68.3367L27.8048 67.9691L30.2042 59.6611Z" fill="#915B3C"/>
<path fillRule="evenodd" clipRule="evenodd" d="M26.741 53.567C26.583 53.3869 26.5072 53.1403 26.443 52.9067C26.3764 52.664 26.3123 52.419 26.2743 52.1686C26.1983 51.6682 26.2369 51.1016 26.6151 50.7437C26.9184 50.4566 27.3509 50.3486 27.7433 50.346C28.0047 50.3442 28.2693 50.3993 28.5128 50.4987C28.7544 50.5973 28.9563 50.7742 29.189 50.8915C29.2353 50.3613 29.3651 49.8122 29.6661 49.3777C29.9558 48.9597 30.3861 48.7439 30.8612 48.712C31.3488 48.6793 31.8179 48.8257 32.2339 49.0898C32.3381 49.1559 32.441 49.2248 32.5388 49.3014C32.6207 49.3655 32.7051 49.4418 32.8043 49.4725C32.9149 49.5067 32.9751 49.4457 33.0539 49.3688C33.1463 49.2786 33.2487 49.2007 33.3561 49.1328C33.8309 48.8324 34.4329 48.7374 34.9421 48.9729C35.1768 49.0814 35.4003 49.2535 35.5488 49.4795C35.6812 49.6809 35.764 49.9915 35.9559 50.1388C36.0373 50.2013 36.1028 50.1306 36.1844 50.0806C36.307 50.0056 36.4248 49.9216 36.5486 49.8489C36.7226 49.7468 36.9082 49.6743 37.1038 49.6432C37.3901 49.5977 37.7784 49.6402 37.8331 50.0149C37.8537 50.1556 37.8201 50.3022 37.8006 50.4412C37.7738 50.632 37.7464 50.8227 37.7163 51.0131C37.6935 51.1576 37.6677 51.2969 37.6303 51.4377C37.6104 51.5128 37.5546 51.6515 37.5819 51.73C37.6161 51.8281 37.8081 51.7871 37.8883 51.796C38.0466 51.8137 38.2042 51.8527 38.3463 51.9308C38.4564 51.9914 38.5707 52.0771 38.6096 52.2109C38.6335 52.2932 38.62 52.3749 38.6003 52.4564C38.5766 52.5542 38.5921 52.608 38.5976 52.7087C38.8183 52.6186 39.5738 52.4369 39.6401 52.8257C39.6622 52.9551 39.5816 53.0941 39.5203 53.1976C39.4128 53.3794 39.277 53.5428 39.1391 53.6981C38.8513 54.022 38.5157 54.2954 38.1591 54.5242C38.5438 54.7285 38.6111 55.2564 38.2456 55.5425C38.0843 55.6689 37.8781 55.6851 37.6872 55.6629C37.6174 55.6548 37.5182 55.6208 37.4622 55.6292C37.4321 55.6337 37.3986 55.6566 37.3573 55.6565C37.0858 55.6562 36.7853 55.5697 36.5254 55.4913C36.0622 55.3516 35.6323 55.0974 35.2922 54.7324C35.2049 54.6388 35.1313 54.5832 35.0056 54.5757C34.8954 54.5691 34.7853 54.5918 34.6751 54.5869C34.3836 54.5739 34.1311 54.4133 33.8675 54.2997C33.8254 54.6636 33.6934 55.0584 33.5211 55.3764C33.3805 55.6358 33.1235 55.6569 32.872 55.6629C32.0676 55.6822 31.2715 55.5422 30.4713 55.4874C31.2336 55.7166 32.029 55.8448 32.7822 56.1045C33.1227 56.2218 32.8414 56.4372 32.6817 56.5889C32.4187 56.8388 32.2139 57.1569 32.0635 57.4966C31.7192 56.9762 31.0722 56.6039 30.4683 56.7142C29.801 56.8359 29.2774 57.6902 29.652 58.3569C29.8695 58.7439 30.299 58.9175 30.6536 59.102C30.3476 59.3787 30.248 59.8119 30.0504 60.1689C29.953 60.345 29.8198 60.5424 29.6259 60.5926C29.5542 60.6112 29.4719 60.6074 29.4126 60.6607C29.3392 60.7266 29.3174 60.8046 29.2257 60.8592C28.8598 61.0774 28.316 61.0206 28.0288 60.6824C27.7691 60.3765 27.8736 59.9285 28.1275 59.6545C27.7665 59.4735 27.1029 59.2268 27.2912 58.6578C26.4892 58.548 24.6242 57.1044 25.7725 56.2251C25.2024 55.8481 24.7145 54.9902 25.1462 54.2943C25.4787 53.7584 26.1788 53.5574 26.741 53.567Z" fill="#191847"/>
<path fillRule="evenodd" clipRule="evenodd" d="M23.4902 87.0996L39.8047 114.374L52.0359 137.433H54.6704L34.1769 87.0996L23.4902 87.0996Z" fill="#784931"/>
<path fillRule="evenodd" clipRule="evenodd" d="M50.4251 136.368C50.1795 137.024 50.0566 137.514 50.0566 137.84C50.0566 138.236 50.1226 138.813 50.2545 139.573C50.7138 139.573 54.8416 139.573 62.6379 139.573C62.9597 138.509 62.774 137.935 62.0806 137.85C61.3873 137.765 60.8114 137.689 60.3528 137.62L54.5971 135.054C54.4863 135.005 54.3565 135.055 54.3071 135.165C54.3063 135.167 54.3055 135.169 54.3047 135.171L53.9347 136.069C53.2929 136.368 52.7713 136.518 52.37 136.518C52.044 136.518 51.5938 136.386 51.0193 136.123C50.7988 136.022 50.5382 136.118 50.4371 136.339C50.4328 136.348 50.4288 136.358 50.4251 136.368Z" fill="#E4E4E4"/>
<path fillRule="evenodd" clipRule="evenodd" d="M48.6389 133.741L53.7195 132.204C51.4935 125.549 48.7653 118.227 45.5349 110.235C42.3044 102.244 38.835 94.532 35.1267 87.0996H20.7773C24.9002 96.5013 29.271 105.044 33.8897 112.727C38.5084 120.411 43.4248 127.415 48.6389 133.741Z" fill="#5C63AB"/>
<path fillRule="evenodd" clipRule="evenodd" d="M22.4177 87.0996C20.878 96.6842 17.9081 108.93 17.6279 109.308C17.441 109.559 10.7145 111.813 -2.55176 116.069L-1.98268 118.393C13.8373 116.11 22.1731 114.339 23.0246 113.08C24.302 111.191 30.6801 96.269 33.1504 87.0996H22.4177Z" fill="#915B3C"/>
<path fillRule="evenodd" clipRule="evenodd" d="M2.1123 114.061L3.11468 117.803C14.9471 118.841 22.1971 118.091 24.8646 115.553C27.5322 113.016 30.5724 103.531 33.9853 87.0996H20.3023C18.14 100.555 16.9311 107.565 16.6757 108.13C16.4202 108.695 11.5658 110.672 2.1123 114.061Z" fill="#8991DC"/>
<path fillRule="evenodd" clipRule="evenodd" d="M-1.90179 115.102C-2.59019 114.974 -3.09468 114.938 -3.41526 114.995C-3.80517 115.064 -4.36269 115.229 -5.08783 115.491C-5.00807 115.943 -4.29128 120.008 -2.93747 127.686C-1.83389 127.818 -1.30053 127.535 -1.33738 126.838C-1.37424 126.14 -1.39883 125.56 -1.41114 125.096L0.116329 118.983C0.14572 118.865 0.0741793 118.746 -0.0434626 118.716C-0.0454751 118.716 -0.047495 118.715 -0.0495209 118.715L-0.99759 118.506C-1.40396 117.926 -1.64199 117.439 -1.71167 117.044C-1.76828 116.722 -1.7168 116.256 -1.55721 115.645C-1.49596 115.41 -1.63654 115.17 -1.8712 115.109C-1.88131 115.106 -1.89151 115.104 -1.90179 115.102Z" fill="#E4E4E4"/>
<path fillRule="evenodd" clipRule="evenodd" d="M43.0848 84.9355L49.0889 91.2164C50.8705 92.051 52.3226 92.9546 53.4452 93.9271C53.6941 94.2495 53.9559 94.8598 52.743 94.5485C51.5302 94.2371 50.2404 93.9642 49.9968 94.3536C49.7532 94.7431 50.4088 95.3758 49.9661 95.8812C49.671 96.2181 48.7577 95.0818 47.2261 92.4721L40.8956 88.4356L43.0848 84.9355ZM12.2452 77.3225L15.9315 78.6835C9.96552 86.6743 6.78074 90.894 6.37717 91.3426C5.46915 92.352 5.82357 94.5216 5.90315 95.6471C4.2669 95.7646 5.26552 93.4874 3.18996 93.6672C1.29548 93.8312 -0.434043 94.7484 -1.8855 92.9121C-2.06395 92.6864 -2.12154 92.0599 -1.36016 91.8639C0.536718 91.3755 3.38734 90.35 3.90117 89.8579C4.60186 89.1869 7.38319 85.0085 12.2452 77.3225Z" fill="#915B3C"/>
<path fillRule="evenodd" clipRule="evenodd" d="M44.5946 85.7697C45.4932 85.8625 46.4325 86.1797 47.406 86.7109C47.8849 86.9723 48.0614 87.5724 47.8 88.0514C47.6482 88.3296 47.3821 88.5058 47.0918 88.5533C47.2644 88.7327 47.4388 88.9116 47.6152 89.09L45.2489 92.3353C38.5707 87.3935 32.1742 83.4276 30.101 76.8477C29.4052 74.6393 30.9729 67.831 31.3132 65.3136L33.793 64.773C35.8416 72.0046 39.077 79.1665 44.5946 85.7697Z" fill="#69A1AC"/>
<path fillRule="evenodd" clipRule="evenodd" d="M19.0921 87.121C25.7581 89.0663 31.1086 90.0098 35.1436 89.9513C35.6435 89.944 35.9899 87.8556 35.866 87.2467C33.9369 77.7646 32.784 70.8691 33.8699 64.7108C33.1701 64.9325 32.0397 64.7849 30.4789 64.268C25.0541 69.8551 21.7909 76.7878 19.0921 87.121Z" fill="#191847"/>
<path fillRule="evenodd" clipRule="evenodd" d="M17.6446 87.9465C17.4521 87.6885 17.3891 87.3417 17.5074 87.0167L17.7327 86.3977C17.8854 85.9783 18.2926 85.725 18.7164 85.7489C18.8461 85.4373 18.9655 85.1261 19.0736 84.8154C19.9865 82.1904 19.7079 79.4096 20.2016 76.8141C16.2017 79.1675 12.1795 83.7397 8.13503 90.5308L4.26319 88.6091C4.52107 88.0577 4.78329 87.5144 5.04984 86.9792C4.62571 86.6283 4.29134 85.3039 4.72394 85.1684C5.17072 85.0285 5.63073 84.9557 6.10294 84.9484C11.8359 74.3306 19.4135 67.1623 28.8357 63.4434L30.0036 63.6493L31.2947 63.877C28.8825 73.3238 35.1968 95.9901 28.5768 113.23C21.906 113.531 13.5297 107.456 3.98257 109.446C5.58209 102.316 13.7191 95.0424 17.6446 87.9465Z" fill="#89C5CC"/>
<path fillRule="evenodd" clipRule="evenodd" d="M29.6903 63.8164L27.9699 67.0502L29.7629 70.018L27.3764 71.6809L30.8051 80.9568L26.2787 71.5046L28.632 69.8185L27.0387 67.1943L29.6903 63.8164Z" fill="black" fill-opacity="0.1"/>
<path fillRule="evenodd" clipRule="evenodd" d="M28.7923 83.9467C28.3146 83.8625 27.9957 83.407 28.0799 82.9293C28.1641 82.4517 28.6196 82.1327 29.0973 82.217C29.575 82.3012 29.8939 82.7567 29.8097 83.2343C29.7255 83.712 29.27 84.031 28.7923 83.9467ZM28.9965 89.1104C28.5189 89.0262 28.1999 88.5707 28.2841 88.0931C28.3684 87.6154 28.8239 87.2965 29.3015 87.3807C29.7792 87.4649 30.0981 87.9204 30.0139 88.3981C29.9297 88.8757 29.4742 89.1947 28.9965 89.1104ZM28.3358 94.1217C27.8582 94.0374 27.5392 93.5819 27.6235 93.1043C27.7077 92.6266 28.1632 92.3077 28.6409 92.3919C29.1185 92.4761 29.4375 92.9316 29.3532 93.4093C29.269 93.8869 28.8135 94.2059 28.3358 94.1217Z" fill="black" fill-opacity="0.4"/>
<path fillRule="evenodd" clipRule="evenodd" d="M114.815 58.1683C113.803 56.9807 113.119 55.5254 113.233 53.8946C113.563 49.196 120.103 50.2297 121.376 52.6011C122.648 54.9726 122.497 60.988 120.852 61.4118C120.197 61.5809 118.8 61.1668 117.378 60.3098L118.27 66.6234H113.001L114.815 58.1683Z" fill="#57331F"/>
<path fillRule="evenodd" clipRule="evenodd" d="M117.641 54.4128C117.843 57.2225 118.377 58.6273 119.242 58.6273C120.54 58.6273 121.642 57.8032 122.211 57.8032C122.627 57.8032 122.534 58.3228 122.259 58.7081C122.031 59.0259 120.926 59.3323 120.926 59.8251C120.926 60.3179 121.799 59.9366 121.799 60.2289C121.799 60.7123 121.953 61.6213 121.114 61.6213C120.265 61.6213 117.83 61.3118 117.413 60.0515C117.144 59.2382 116.969 57.5528 116.891 54.9953C116.839 54.9892 116.787 54.986 116.733 54.986C116.006 54.986 115.416 55.5758 115.416 56.3034C115.416 56.6727 115.568 57.0066 115.813 57.2458C115.508 57.676 115.167 58.1255 114.775 58.5892C113.304 57.7069 112.213 55.1241 113.651 52.643C114.048 51.4275 114.948 50.7783 116.011 50.4768C116.871 50.1168 117.765 50.0762 118.519 50.292C119.997 50.4189 121.318 50.8697 121.692 51.1374C121.692 52.5371 121.421 52.9524 119.104 52.9158C118.535 53.2164 118.097 53.7341 117.641 54.4128Z" fill="#191847"/>
<path fillRule="evenodd" clipRule="evenodd" d="M112.578 84.791L123.354 112.066L130.582 135.125H133.436L122.387 84.791L112.578 84.791Z" fill="#3D2216"/>
<path fillRule="evenodd" clipRule="evenodd" d="M110.408 84.791C110.293 94.3756 108.62 107.28 108.353 107.877C108.174 108.275 102.021 113.341 89.8926 123.072L91.8583 125.176C106.169 116.832 113.655 112.104 114.317 110.991C115.311 109.322 118.544 93.9604 121.141 84.791H110.408Z" fill="#57331F"/>
<path fillRule="evenodd" clipRule="evenodd" d="M89.63 122.369C88.9698 122.603 88.515 122.824 88.2657 123.033C87.9624 123.288 87.5622 123.71 87.0651 124.299C87.3603 124.651 90.0136 127.813 95.025 133.785C96.0468 133.348 96.3674 132.836 95.9867 132.251C95.606 131.665 95.2945 131.175 95.0521 130.779L93.318 124.721C93.2846 124.604 93.1631 124.537 93.0465 124.57C93.0445 124.571 93.0425 124.571 93.0405 124.572L92.1152 124.866C91.4733 124.566 91.0233 124.263 90.7654 123.956C90.5558 123.706 90.3672 123.276 90.1997 122.667C90.1354 122.433 89.8937 122.296 89.6599 122.36C89.6498 122.363 89.6398 122.366 89.63 122.369Z" fill="#E4E4E4"/>
<path fillRule="evenodd" clipRule="evenodd" d="M129.413 134.059C129.168 134.715 129.045 135.206 129.045 135.531C129.045 135.927 129.111 136.505 129.243 137.264C129.702 137.264 133.83 137.264 141.626 137.264C141.948 136.201 141.762 135.626 141.069 135.541C140.376 135.457 139.8 135.38 139.341 135.312L133.585 132.746C133.475 132.696 133.345 132.746 133.295 132.857C133.295 132.859 133.294 132.861 133.293 132.862L132.923 133.76C132.281 134.059 131.76 134.209 131.358 134.209C131.032 134.209 130.582 134.077 130.008 133.814C129.787 133.713 129.526 133.81 129.425 134.03C129.421 134.04 129.417 134.049 129.413 134.059Z" fill="#E4E4E4"/>
<path fillRule="evenodd" clipRule="evenodd" d="M119.823 132.749L133.393 131.277L123.336 84.791H111.183L119.823 132.749Z" fill="#69A1AC"/>
<path fillRule="evenodd" clipRule="evenodd" d="M92.6992 119.679L101.6 130.214C110.975 119.975 116.441 113.294 117.997 110.171C119.553 107.048 120.952 98.588 122.194 84.791H108.511C107.833 96.929 107.376 103.28 107.14 103.845C106.903 104.41 102.09 109.688 92.6992 119.679Z" fill="#89C5CC"/>
<path fillRule="evenodd" clipRule="evenodd" d="M131.784 82.0694L138.003 88.1368C139.813 88.9088 141.296 89.7611 142.452 90.6939C142.712 91.0075 142.995 91.6082 141.772 91.3394C140.549 91.0706 139.25 90.8428 139.02 91.2405C138.79 91.6382 139.468 92.2477 139.043 92.7682C138.76 93.1152 137.807 92.0114 136.186 89.4569L129.718 85.6438L131.784 82.0694ZM101.37 76.5781L106.178 76.5962C102.516 88.4597 100.572 94.6712 100.346 95.2308C99.8384 96.4898 100.913 98.4074 101.373 99.4378C99.8758 100.108 100.035 97.6264 98.1465 98.5052C96.4223 99.3074 95.1108 100.761 93.1188 99.5316C92.8739 99.3805 92.6056 98.8116 93.254 98.367C94.8694 97.2593 97.1974 95.3206 97.5119 94.6825C97.9409 93.8123 99.2269 87.7775 101.37 76.5781Z" fill="#57331F"/>
<path fillRule="evenodd" clipRule="evenodd" d="M116.02 62.9392L117.918 62.6135C120.909 73.1856 136.276 80.392 137.219 84.3441C137.565 85.7934 136.522 86.5261 137.061 86.9675L134.593 88.774C134.175 88.2864 133.283 89.1783 131.421 88.5544C129.559 87.9306 116.02 75.4574 116.02 62.9392Z" fill="#191847"/>
<path fillRule="evenodd" clipRule="evenodd" d="M119.213 64.3454C118.994 78.342 127.085 81.9123 125.283 87.5272C123.795 92.1639 109.55 97.1483 107.085 92.6033C106.087 90.7635 105.634 88.5384 105.583 86.1193C104.953 87.9778 104.454 89.5778 104.088 90.9192C103.456 93.2333 101.004 93.6012 101.004 94.4927L97.7747 93.6012C97.9938 92.39 96.4712 91.8003 96.8795 89.0945C98.7086 76.9712 103.623 68.1833 111.623 62.731L111.706 61.5475C111.739 61.0636 112.159 60.6988 112.643 60.7326L118.556 61.1462C119.04 61.18 119.405 61.5997 119.371 62.0835L119.213 64.3454Z" fill="#2F3676"/>
<g clip-path="url(#clip0_6041_31054)">
<path fillRule="evenodd" clipRule="evenodd" d="M210.899 58.889C210.333 57.3705 210.182 55.7068 210.873 54.1558C212.864 49.6869 218.88 53.0193 219.28 55.7859C219.679 58.5525 217.395 64.37 215.639 64.1996C214.939 64.1316 213.723 63.2312 212.639 61.8897L211.268 68.3689L206.125 66.497L210.899 58.889Z" fill="#B28B67"/>
<path fillRule="evenodd" clipRule="evenodd" d="M218.677 53.8378C218.585 53.7246 218.392 53.4866 218.287 53.3874C218.262 53.3637 218.109 53.1408 218.103 53.1406C217.927 53.1365 217.402 53.1665 217.302 53.3209C217.291 53.3315 217.281 53.3413 217.271 53.3497C217.164 53.4431 217.062 53.5414 216.962 53.6421C216.741 53.8632 216.533 54.1025 216.331 54.3413C215.938 54.8065 215.565 55.2936 215.206 55.787C214.841 56.2893 214.498 56.807 214.139 57.3145C213.624 58.0448 213.054 58.7328 212.54 59.4633C212.212 59.9298 211.944 60.4249 211.787 60.9707C211.785 60.9772 211.783 60.9836 211.781 60.9903C211.78 60.9931 211.78 60.9958 211.779 60.9986C211.755 61.0827 211.734 61.168 211.716 61.2546C211.701 61.3287 211.686 61.4032 211.671 61.4778C212.016 61.1519 212.329 60.7682 212.643 60.4102C212.673 60.3751 212.703 60.3395 212.733 60.3037C212.816 60.2381 212.9 60.1735 212.984 60.1095C213.516 59.7057 214.048 59.3044 214.569 58.886C215.506 58.1335 216.445 57.3586 217.463 56.7245C217.763 56.5373 218.067 56.3558 218.365 56.1655C218.535 56.0572 218.703 55.9453 218.868 55.8294C218.986 55.7465 219.465 55.4818 219.427 55.2045C219.408 55.0626 218.916 54.1314 218.677 53.8378Z" fill="#2C2C2C"/>
<path fillRule="evenodd" clipRule="evenodd" d="M218.317 53.421C218.417 53.5012 218.448 53.2425 218.368 53.1183C217.995 52.5425 216.081 51.6862 214.242 51.4187C213.009 51.2395 211.461 51.3465 210.269 51.7744C209.195 52.1603 208.227 53.0535 207.548 54.0098C206.835 55.0139 206.365 56.1602 206.12 57.3665C206.066 57.6315 206.059 57.9004 206.015 58.1627C205.965 58.4582 205.894 58.7343 205.886 59.0367C205.881 59.2218 205.916 59.4177 205.903 59.6008C205.888 59.8097 205.791 59.973 205.682 60.1513C205.503 60.4419 205.31 60.7263 205.088 60.9851C204.755 61.3736 204.396 61.7205 204.098 62.1408C203.7 62.7001 202.247 64.462 202.57 65.204L212.539 68.8323C212.537 68.0562 212.077 66.9761 212.191 66.1876C212.259 65.7231 212.559 64.7646 212.562 64.7269C212.901 63.0966 212.732 62.1974 212.555 61.8291C212.378 61.4607 212.042 61.245 212.108 61.0053C212.38 60.0142 213.099 59.231 213.706 58.4346C214.431 57.4854 215.076 56.4771 215.809 55.5353C216.134 55.1183 217.794 53.0046 218.317 53.421Z" fill="#8991DC"/>
<path fillRule="evenodd" clipRule="evenodd" d="M214.418 53.2564C213.608 54.3123 213.295 54.9196 212.783 56.5787L212.599 56.5116C212.814 54.8483 213.648 53.512 214.186 53.172L214.418 53.2564ZM208.255 54.499C208.336 56.4538 208.29 57.5738 209.746 59.6613L209.556 59.7121C208.015 57.9047 207.927 56.386 208.081 54.5162L208.255 54.499ZM211.762 53.8168C211.202 56.3453 210.794 57.7573 211.491 60.9997L211.295 60.9894C210.425 58.0706 210.837 56.0967 211.593 53.7702L211.762 53.8168ZM207.323 60.3173L207.541 60.1888C209.365 61.583 208.651 62.8309 210.753 65.1229L210.489 65.1754C208.559 63.4119 208.76 61.2089 207.323 60.3173Z" fill="black" fill-opacity="0.2"/>
<path fillRule="evenodd" clipRule="evenodd" d="M199.12 86.5801L216.065 114.91L228.77 138.86H231.506L210.22 86.5801L199.12 86.5801Z" fill="#997659"/>
<path fillRule="evenodd" clipRule="evenodd" d="M227.097 137.753C226.841 138.434 226.714 138.944 226.714 139.282C226.714 139.693 226.782 140.293 226.919 141.082C227.396 141.082 231.684 141.082 239.782 141.082C240.116 139.977 239.923 139.381 239.203 139.293C238.483 139.205 237.884 139.125 237.408 139.054L231.43 136.389C231.315 136.338 231.18 136.389 231.129 136.504C231.128 136.506 231.127 136.508 231.126 136.51L230.742 137.442C230.075 137.754 229.534 137.909 229.117 137.909C228.778 137.909 228.31 137.772 227.714 137.499C227.485 137.394 227.214 137.494 227.109 137.723C227.105 137.733 227.1 137.743 227.097 137.753Z" fill="#E4E4E4"/>
<path fillRule="evenodd" clipRule="evenodd" d="M225.242 135.025L230.519 133.428C228.207 126.517 225.373 118.911 222.018 110.61C218.662 102.31 215.059 94.2999 211.207 86.5801H196.303C200.585 96.3453 205.125 105.218 209.922 113.199C214.719 121.18 219.826 128.455 225.242 135.025Z" fill="#074E4A"/>
<path fillRule="evenodd" clipRule="evenodd" d="M198.006 86.5801C196.407 96.5353 193.322 109.254 193.031 109.647C192.837 109.908 185.851 112.25 172.071 116.67L172.662 119.083C189.094 116.712 197.752 114.873 198.637 113.565C199.963 111.603 206.588 96.104 209.154 86.5801H198.006Z" fill="#B28B67"/>
<path fillRule="evenodd" clipRule="evenodd" d="M176.915 114.584L177.956 118.471C190.246 119.549 197.776 118.77 200.547 116.134C203.318 113.498 206.476 103.647 210.021 86.5801H195.808C193.562 100.556 192.307 107.837 192.042 108.424C191.776 109.01 186.734 111.064 176.915 114.584Z" fill="#0C5C56"/>
<path fillRule="evenodd" clipRule="evenodd" d="M172.746 115.664C172.031 115.531 171.507 115.494 171.174 115.553C170.769 115.624 170.19 115.796 169.437 116.068C169.52 116.538 170.264 120.76 171.67 128.735C172.817 128.872 173.371 128.578 173.332 127.854C173.294 127.129 173.269 126.526 173.256 126.045L174.842 119.695C174.873 119.572 174.799 119.449 174.676 119.418C174.674 119.418 174.672 119.417 174.67 119.417L173.685 119.2C173.263 118.598 173.016 118.091 172.944 117.681C172.885 117.347 172.938 116.863 173.104 116.228C173.168 115.984 173.022 115.735 172.778 115.671C172.767 115.668 172.757 115.666 172.746 115.664Z" fill="#E4E4E4"/>
<path fillRule="evenodd" clipRule="evenodd" d="M218.922 86.5776L224.092 93.9752C225.792 95.1196 227.141 96.2803 228.14 97.4574C228.345 97.8274 228.516 98.4935 227.318 97.9767C226.119 97.4599 224.836 96.9697 224.522 97.3275C224.209 97.6852 224.782 98.4387 224.245 98.8822C223.887 99.1778 223.13 97.8678 221.973 94.952L216.105 89.7925L218.922 86.5776ZM189.353 76.0532L193.118 77.6662C186.492 85.5815 182.958 89.7595 182.514 90.2C181.517 91.1911 181.772 93.4514 181.796 94.6182C180.087 94.6473 181.245 92.3521 179.076 92.4208C177.096 92.4834 175.249 93.3331 173.835 91.3552C173.661 91.112 173.634 90.4619 174.436 90.3024C176.435 89.9049 179.455 89.0065 180.016 88.5274C180.78 87.8739 183.892 83.7159 189.353 76.0532Z" fill="#B28B67"/>
<path fillRule="evenodd" clipRule="evenodd" d="M209.959 64.6115L212.598 64.466C213.705 73.4997 216.5 82.7022 222.916 91.5617L219.959 94.4874C213.879 88.3465 207.933 83.2483 206.857 76.1897C206.495 73.8207 209.204 67.1261 209.959 64.6115Z" fill="#C5CFD6"/>
<path fillRule="evenodd" clipRule="evenodd" d="M195.478 85.3199C202.233 87.9128 207.703 89.3786 211.89 89.7174C212.409 89.7593 212.707 88.9594 212.626 88.3409C211.38 78.7093 210.96 70.4839 212.574 64.4586C211.831 64.6105 210.671 64.3523 209.095 63.6841C203.029 68.7138 199.096 75.296 195.478 85.3199Z" fill="#323337"/>
<path fillRule="evenodd" clipRule="evenodd" d="M208.14 62.8716L209.975 63.3632C209.735 65.9688 202.043 100.063 203.246 112.212L180.74 106.182C183.936 96.2036 191.039 85.0917 197.661 75.975C193.375 78.1793 188.95 82.6745 184.385 89.4606L180.457 87.258C187.18 74.7061 196.262 66.5898 207.703 62.9093C207.737 62.8665 207.771 62.824 207.805 62.7817L207.967 62.8252C208.037 62.8032 208.107 62.7813 208.177 62.7597L208.14 62.8716Z" fill="#DDE3E9"/>
</g>
<path fillRule="evenodd" clipRule="evenodd" d="M291.62 52.4624C293.118 55.0067 295.813 61.0383 295.061 62.2941L288.673 64.0057C288.67 63.9946 288.666 63.9835 288.662 63.9724C286.224 64.3448 283.845 62.8308 283.192 60.3932L281.986 55.8922C281.285 53.2766 282.837 50.5881 285.453 49.8873L285.893 49.7692C288.239 49.1406 290.644 50.3245 291.62 52.4624Z" fill="#191847"/>
<path fillRule="evenodd" clipRule="evenodd" d="M285.449 58.894C284.118 57.9851 283.043 56.722 282.723 55.0697C281.802 50.3087 288.639 49.5783 290.548 51.5944C292.456 53.6106 293.907 59.6329 292.37 60.4964C291.758 60.8408 290.246 60.8046 288.591 60.3347L291.169 66.3729L285.882 67.7895L285.449 58.894Z" fill="#B28B67"/>
<path fillRule="evenodd" clipRule="evenodd" d="M286.667 57.723C287.605 60.251 288.301 63.2387 287.764 64.1361L281.376 65.8478C279.377 59.8139 283.453 61.2658 281.907 55.4949C282.066 55.2298 282.213 54.9699 282.366 54.7389L282.314 54.5711C282.818 52.0302 283.921 50.5319 285.622 50.0763C288.172 49.3928 289.293 50.3535 290.246 51.1686C290.201 53.0493 288.28 53.8408 286.804 55.4012C286.551 55.2892 286.258 55.2598 285.969 55.3374C285.3 55.5167 284.901 56.1996 285.079 56.8628C285.257 57.526 285.943 57.9183 286.612 57.739C286.631 57.734 286.649 57.7287 286.667 57.723Z" fill="#191847"/>
<path fillRule="evenodd" clipRule="evenodd" d="M280.108 108.484C285.579 110.008 290.299 110.77 294.268 110.77C298.237 110.77 301.924 109.596 305.329 107.249C299.975 105.685 295.566 104.902 292.102 104.902C288.638 104.902 284.64 106.096 280.108 108.484Z" fill="#0C5C56"/>
<path fillRule="evenodd" clipRule="evenodd" d="M299.004 112.967C298.952 112.888 298.907 112.802 298.872 112.709C298.141 110.783 286.428 90.0007 285.261 86.2012H298.448C299.335 89.09 303.328 107.219 303.89 110.836C305.663 116.541 309.314 135.018 309.78 136.298C310.27 137.645 307.512 139.048 306.777 137.392C305.607 134.758 302.82 127.469 301.579 123.019C300.416 118.847 299.468 115.093 299.004 112.967Z" fill="#997659"/>
<path fillRule="evenodd" clipRule="evenodd" d="M288.215 115.504C282.86 116.852 263.273 119.29 261.929 119.672C260.546 120.065 259.334 117.226 261.043 116.611C263.762 115.633 271.256 113.372 275.799 112.449C279.454 111.707 282.788 111.101 285.027 110.747C284.837 104.482 283.97 89.4482 284.539 86.2012H296.207C295.662 89.3148 291.055 112.034 290.199 114.308C289.927 115.12 289.117 115.479 288.215 115.504Z" fill="#B28B67"/>
<path fillRule="evenodd" clipRule="evenodd" d="M261.15 115.834C260.435 115.701 259.911 115.664 259.578 115.723C259.173 115.794 258.593 115.966 257.84 116.238C257.923 116.707 258.668 120.93 260.074 128.905C261.22 129.042 261.774 128.748 261.736 128.024C261.697 127.299 261.672 126.696 261.659 126.215L263.246 119.865C263.276 119.742 263.202 119.619 263.08 119.588C263.078 119.588 263.076 119.587 263.073 119.587L262.089 119.37C261.667 118.768 261.419 118.261 261.347 117.851C261.288 117.517 261.342 117.033 261.507 116.398C261.571 116.154 261.425 115.905 261.181 115.841C261.171 115.838 261.16 115.836 261.15 115.834Z" fill="#E4E4E4"/>
<path fillRule="evenodd" clipRule="evenodd" d="M305.939 137.199C305.684 137.88 305.557 138.389 305.557 138.727C305.557 139.139 305.625 139.739 305.762 140.528C306.239 140.528 310.527 140.528 318.624 140.528C318.959 139.423 318.766 138.826 318.046 138.738C317.325 138.65 316.727 138.57 316.251 138.499L310.273 135.834C310.158 135.783 310.023 135.835 309.972 135.95C309.971 135.952 309.97 135.954 309.969 135.956L309.585 136.888C308.918 137.199 308.376 137.354 307.96 137.354C307.621 137.354 307.153 137.218 306.557 136.944C306.328 136.839 306.057 136.94 305.952 137.169C305.947 137.178 305.943 137.189 305.939 137.199Z" fill="#E4E4E4"/>
<path fillRule="evenodd" clipRule="evenodd" d="M284.576 86.2006C289.718 84.7352 294.583 84.7352 299.171 86.2006C300.767 93.4557 304.646 96.3353 305.328 107.459C297.575 111.296 287.997 104.722 280.015 108.464C277.735 103.229 280.927 90.6223 284.576 86.2006Z" fill="#106A63"/>
<path fillRule="evenodd" clipRule="evenodd" d="M296.741 71.1755L303.787 65.5526C304.813 63.7923 305.881 62.3774 306.99 61.3081C307.346 61.0806 308.001 60.8654 307.568 62.0866C307.135 63.3079 306.735 64.6118 307.116 64.8974C307.496 65.1831 308.211 64.5643 308.693 65.0654C309.015 65.3994 307.756 66.2386 304.916 67.583L300.162 73.7423L296.741 71.1755ZM309.582 72.6072L312.676 70.1317C312.836 68.2278 313.249 67.2113 313.915 67.082C314.386 66.7539 313.898 69.2102 314.835 68.8393C315.773 68.4683 317.838 66.2919 318.311 66.5766C319.009 66.9978 318.755 68.7142 318.261 69.6328C317.338 71.3497 316.445 72.0386 314.131 73.1425C312.922 73.7197 311.671 74.6696 310.38 75.9921L309.582 72.6072Z" fill="#997659"/>
<path fillRule="evenodd" clipRule="evenodd" d="M292.778 70.8991C295.503 70.3889 299.043 69.1731 302.495 66.0342L304.618 69.1508C302.405 72.2697 299.02 75.1083 295.709 75.5972C293.1 75.9825 291.222 73.0914 292.778 70.8991Z" fill="#0D3B39"/>
<path fillRule="evenodd" clipRule="evenodd" d="M297.412 75.6802C300.437 75.8884 305.149 74.183 311.546 70.564C313.852 73.7496 315.073 76.0955 315.207 77.6017C309.89 81.6761 305.112 83.9172 300.995 84.7355C301.557 87.1527 301.668 89.5273 301.039 91.8258C299.747 96.5512 286.963 94.6401 283.045 96.1509C279.055 88.3852 283.38 84.1806 282.458 78.9243C281.447 73.168 284.529 63.49 285.213 63.3695L291.444 62.2708C292.563 66.6057 295.148 71.1448 297.412 75.6802Z" fill="#0C5C56"/>
<path fillRule="evenodd" clipRule="evenodd" d="M376.411 59.5692C377.081 58.1603 377.365 56.5773 376.833 55.0317C375.298 50.5785 369.248 53.2698 368.633 55.8898C368.018 58.5097 369.721 64.281 371.419 64.2648C372.096 64.2584 373.338 63.4969 374.49 62.3011L375.262 68.6305L380.351 67.2667L376.411 59.5692Z" fill="#D4A181"/>
<path fillRule="evenodd" clipRule="evenodd" d="M374.564 59.7218C375.52 60.7642 376.637 61.4426 377.509 61.209C379.166 60.7651 379.75 58.2349 379.112 55.8538C379.09 55.7701 379.066 55.6874 379.04 55.6058C381.115 56.3388 383.1 58.347 385.419 57.7258C388.573 56.8806 388.121 50.1827 383.714 51.3635C380.717 52.1666 379.36 52.9986 378.262 53.9852C377.823 53.3459 377.281 52.8544 376.703 52.5648C376.557 52.4684 376.352 52.3935 376.099 52.3408C375.944 52.3029 375.787 52.28 375.63 52.2731C374.788 52.1969 373.625 52.2957 372.374 52.5845C372.14 52.6385 371.912 52.697 371.691 52.7595C371.375 51.5922 370.173 50.9004 369.004 51.2136C367.833 51.5275 367.138 52.7314 367.451 53.9027C367.755 55.0354 368.891 55.7227 370.025 55.4829C370.717 55.5088 371.578 55.4336 372.505 55.2505C372.506 55.6069 372.559 55.9977 372.673 56.4248C372.774 56.8019 372.923 57.1907 373.109 57.5762C373.243 57.2884 373.466 57.0643 373.735 56.9924C374.485 56.7914 375.172 57.2687 375.348 57.9239C375.571 58.7556 375.252 59.4859 374.564 59.7218Z" fill="#191847"/>
<path fillRule="evenodd" clipRule="evenodd" d="M386.845 86.6758L378.802 114.39L375.019 135.198H371.223L375.013 86.6758H386.845Z" fill="#BA8B72"/>
<path fillRule="evenodd" clipRule="evenodd" d="M390.459 86.6758C389.898 101.073 390.119 108.926 390.245 110.234C390.37 111.542 391.084 120.302 395.942 135.637H391.993C385.559 120.926 383.312 112.166 382.574 110.234C381.836 108.302 379.657 100.449 376.474 86.6758H390.459Z" fill="#D4A181"/>
<path fillRule="evenodd" clipRule="evenodd" d="M387.017 86.6758C384.925 96.2122 381.306 111.435 376.162 132.344H370.609C370.198 110.883 371.943 96.7579 374.965 86.6758H387.017Z" fill="#69A1AC"/>
<path fillRule="evenodd" clipRule="evenodd" d="M390.487 86.6758C389.937 101.073 391.361 115.257 395.773 132.568H389.848C383.402 118.076 378.781 103.962 375.624 86.6758H390.487Z" fill="#89C5CC"/>
<path fillRule="evenodd" clipRule="evenodd" d="M396.505 138.491L396.287 134.978C395.011 135.351 393.413 135.205 391.493 134.539C389.429 136.001 386.83 137 383.697 137.535C383.457 137.576 383.297 137.802 383.338 138.041C383.34 138.057 383.344 138.072 383.348 138.087L383.649 139.15H391.493H396.069L396.505 138.491Z" fill="#191847"/>
<path fillRule="evenodd" clipRule="evenodd" d="M375.866 138.491L375.648 134.978C374.373 135.351 372.775 135.205 370.855 134.539C368.79 136.001 366.191 137 363.058 137.535C362.819 137.576 362.658 137.802 362.699 138.041C362.702 138.057 362.705 138.072 362.709 138.087L363.011 139.15H370.855H375.43L375.866 138.491Z" fill="#191847"/>
<path fillRule="evenodd" clipRule="evenodd" d="M371.135 74.3326L362.905 71.5455C361.396 70.2835 359.964 69.3493 358.608 68.7429C358.21 68.6537 357.546 68.6743 358.341 69.6419C359.136 70.6096 359.928 71.6631 359.678 72.0485C359.428 72.4338 358.578 72.1071 358.307 72.7219C358.126 73.1318 359.542 73.4793 362.555 73.7644L368.888 77.796L371.135 74.3326ZM359.993 79.8733L356.377 78.6436C355.604 76.9651 354.895 76.177 354.249 76.2794C353.715 76.1366 354.967 78.2089 353.997 78.1812C353.026 78.1535 350.439 76.8561 350.106 77.2709C349.613 77.8845 350.41 79.3614 351.16 80.0337C352.561 81.2902 353.597 81.6218 356.054 81.8619C357.339 81.9874 358.784 82.4383 360.388 83.2147L359.993 79.8733Z" fill="#D4A181"/>
<path fillRule="evenodd" clipRule="evenodd" d="M374.628 72.7717C371.995 73.2074 368.391 73.2703 364.233 71.5556L363.341 75.0904C366.373 77.1959 370.371 78.6599 373.528 78.0115C376.015 77.5006 376.759 74.2517 374.628 72.7717Z" fill="#0D3B39"/>
<path fillRule="evenodd" clipRule="evenodd" d="M372.015 78.65C369.347 79.8381 364.522 79.8425 357.541 78.6633C356.506 82.3215 356.177 84.8575 356.553 86.2714C362.707 88.2213 367.768 88.6821 371.763 88.0671C372.053 90.4505 372.736 92.6465 374.064 94.5291C376.793 98.3994 387.725 92.4417 391.769 92.522C392.814 84.1434 387.513 81.748 386.613 76.6636C385.627 71.0957 379.644 63.3126 378.986 63.4286L372.987 64.4865C373.406 68.7977 372.566 73.7785 372.015 78.65Z" fill="#0C5C56"/>
<path fillRule="evenodd" clipRule="evenodd" d="M469.396 57.3265C470.408 56.1389 471.092 54.6836 470.978 53.0528C470.648 48.3542 464.108 49.3879 462.835 51.7593C461.563 54.1308 461.714 60.1462 463.359 60.57C464.014 60.7391 465.411 60.325 466.833 59.4681L465.941 65.7816H471.21L469.396 57.3265Z" fill="#B28B67"/>
<path fillRule="evenodd" clipRule="evenodd" d="M465.159 52.1027C465.874 52.5027 466.383 53.2522 466.996 54.2353C467.145 54.1767 467.308 54.1445 467.478 54.1445C468.205 54.1445 468.795 54.7343 468.795 55.4618C468.795 55.8312 468.643 56.165 468.398 56.4042C468.703 56.8345 469.044 57.2839 469.436 57.7477C470.897 56.8713 471.983 54.3169 470.588 51.8511C469.388 46.9117 462.588 49.9775 461.28 49.1445C460.994 50.9369 461.916 52.3821 465.159 52.1027Z" fill="#191847"/>
<path fillRule="evenodd" clipRule="evenodd" d="M471.422 84.8418L460.646 112.117L453.418 135.175H450.564L461.613 84.8418L471.422 84.8418Z" fill="#997659"/>
<path fillRule="evenodd" clipRule="evenodd" d="M473.592 84.8418C473.707 94.4264 475.38 107.33 475.647 107.928C475.826 108.326 481.979 113.391 494.107 123.123L492.142 125.227C477.831 116.883 470.345 112.155 469.683 111.042C468.689 109.372 465.456 94.0112 462.859 84.8418H473.592Z" fill="#B28B67"/>
<path fillRule="evenodd" clipRule="evenodd" d="M494.37 122.42C495.03 122.653 495.485 122.875 495.734 123.084C496.038 123.338 496.438 123.76 496.935 124.35C496.64 124.702 493.986 127.864 488.975 133.836C487.953 133.399 487.633 132.887 488.013 132.301C488.394 131.716 488.706 131.225 488.948 130.83L490.682 124.772C490.715 124.655 490.837 124.588 490.954 124.621C490.956 124.622 490.957 124.622 490.959 124.623L491.885 124.916C492.527 124.617 492.977 124.314 493.235 124.006C493.444 123.757 493.633 123.327 493.8 122.718C493.865 122.484 494.106 122.346 494.34 122.411C494.35 122.414 494.36 122.417 494.37 122.42Z" fill="#E4E4E4"/>
<path fillRule="evenodd" clipRule="evenodd" d="M454.587 134.11C454.832 134.766 454.955 135.256 454.955 135.582C454.955 135.978 454.889 136.556 454.757 137.315C454.298 137.315 450.17 137.315 442.374 137.315C442.052 136.251 442.238 135.677 442.931 135.592C443.624 135.507 444.2 135.431 444.659 135.362L450.415 132.796C450.525 132.747 450.655 132.797 450.705 132.908C450.705 132.909 450.706 132.911 450.707 132.913L451.077 133.811C451.719 134.11 452.24 134.26 452.642 134.26C452.968 134.26 453.418 134.128 453.992 133.865C454.213 133.764 454.474 133.861 454.575 134.081C454.579 134.091 454.583 134.1 454.587 134.11Z" fill="#E4E4E4"/>
<path fillRule="evenodd" clipRule="evenodd" d="M464.177 132.8L450.607 131.328L460.664 84.8418H472.817L464.177 132.8Z" fill="#69A1AC"/>
<path fillRule="evenodd" clipRule="evenodd" d="M491.301 119.73L482.4 130.265C473.025 120.026 467.559 113.345 466.003 110.222C464.447 107.099 463.048 98.6388 461.806 84.8418H475.489C476.167 96.9798 476.624 103.331 476.86 103.896C477.097 104.461 481.91 109.739 491.301 119.73Z" fill="#89C5CC"/>
<path fillRule="evenodd" clipRule="evenodd" d="M451.613 82.1876L445.16 88.4417C443.283 89.2374 441.744 90.116 440.545 91.0775C440.275 91.4007 439.982 92.0199 441.251 91.7428C442.519 91.4657 443.867 91.2309 444.105 91.6409C444.344 92.0508 443.641 92.6791 444.082 93.2156C444.375 93.5733 445.363 92.4355 447.046 89.8024L453.756 85.8719L451.613 82.1876ZM483.165 76.5273L478.178 76.5459C481.976 88.7745 483.993 95.1771 484.227 95.7539C484.754 97.0517 483.639 99.0283 483.162 100.09C484.716 100.781 484.55 98.2233 486.51 99.1291C488.298 99.9559 489.659 101.454 491.726 100.187C491.98 100.031 492.258 99.4449 491.585 98.9866C489.909 97.8448 487.494 95.8465 487.168 95.1888C486.723 94.2918 485.389 88.0713 483.165 76.5273Z" fill="#B28B67"/>
<path fillRule="evenodd" clipRule="evenodd" d="M467.967 62.4709L465.997 62.1353C462.895 73.0326 446.953 80.4607 445.974 84.5344C445.615 86.0284 446.697 86.7836 446.138 87.2386L448.698 89.1007C449.132 88.5981 450.057 89.5174 451.989 88.8743C453.921 88.2313 467.967 75.3743 467.967 62.4709Z" fill="#CDD422"/>
<path fillRule="evenodd" clipRule="evenodd" d="M464.654 63.9106C464.884 78.3448 456.486 82.0253 458.356 87.8141C459.901 92.5934 474.679 97.7312 477.237 93.0463C478.272 91.1499 478.741 88.8564 478.795 86.3628C479.448 88.2785 479.965 89.9277 480.346 91.3104C481.001 93.6957 483.545 94.0749 483.545 94.9938L486.895 94.0749C486.668 92.8265 488.247 92.2186 487.824 89.4296C485.926 76.9332 480.828 67.8749 472.528 62.2548L472.44 61.008C472.406 60.5245 471.987 60.16 471.503 60.1936L471.503 60.1928L465.302 60.6228C464.818 60.6564 464.453 61.0759 464.487 61.5598L464.487 61.5605L464.654 63.9106Z" fill="#D6DE21"/>
<path fillRule="evenodd" clipRule="evenodd" d="M557.21 56.8302C558.26 55.5968 558.972 54.0852 558.853 52.3914C558.51 47.511 551.717 48.5846 550.395 51.0478C549.074 53.511 549.231 59.759 550.939 60.1992C551.62 60.3748 553.071 59.9447 554.548 59.0546L553.621 65.6123H559.094L557.21 56.8302Z" fill="#B28B67"/>
<path fillRule="evenodd" clipRule="evenodd" d="M547.97 47.633C548.083 47.2346 548.388 46.8935 548.799 46.7923C548.899 46.7678 549.002 46.7579 549.104 46.762C549.141 46.7635 549.151 46.7741 549.168 46.7483C549.181 46.7293 549.181 46.6827 549.187 46.6603C549.203 46.5906 549.223 46.5218 549.249 46.4548C549.335 46.2262 549.479 46.0239 549.653 45.8535C549.979 45.5347 550.419 45.3147 550.876 45.2749C551.127 45.2531 551.375 45.2937 551.612 45.3752C551.734 45.4173 551.853 45.4698 551.969 45.5278C552.003 45.5453 552.116 45.6308 552.151 45.6252C552.19 45.6191 552.268 45.5232 552.299 45.4991C552.687 45.2014 553.166 45.0844 553.649 45.088C554.195 45.092 554.72 45.1193 555.175 45.4518C555.271 45.5222 555.363 45.5993 555.45 45.6804C555.496 45.7232 555.541 45.7675 555.583 45.8137C555.609 45.8415 555.634 45.87 555.658 45.8993C555.699 45.9489 555.692 45.9652 555.749 45.9306C555.968 45.7975 556.222 45.7353 556.478 45.7667C556.629 45.7854 556.777 45.831 556.917 45.8909C556.965 45.9113 557.075 45.9928 557.126 45.9936C557.177 45.9943 557.286 45.9189 557.338 45.8997C557.618 45.796 557.921 45.7705 558.216 45.8184C558.521 45.8678 558.82 45.9892 559.078 46.1571C559.202 46.2378 559.31 46.3273 559.397 46.4473C559.434 46.4992 559.468 46.554 559.511 46.602C559.536 46.6302 559.585 46.6591 559.598 46.6947C559.59 46.6733 559.931 46.5419 559.964 46.5335C560.135 46.4887 560.309 46.4978 560.477 46.5531C560.793 46.6569 561.064 46.8898 561.287 47.1286C561.402 47.2513 561.502 47.3869 561.587 47.5313C561.628 47.6005 561.665 47.6717 561.699 47.7443C561.716 47.7796 561.727 47.8236 561.749 47.8553C561.777 47.8962 561.796 47.897 561.847 47.9148C562.105 48.0053 562.34 48.1584 562.52 48.3654C562.701 48.5748 562.819 48.8326 562.868 49.1042C562.871 49.1202 562.873 49.1864 562.882 49.1951C562.895 49.207 562.947 49.2017 562.966 49.2041C563.034 49.212 563.102 49.2239 563.169 49.2397C563.292 49.2688 563.411 49.3116 563.524 49.3676C563.965 49.5858 564.281 49.9949 564.435 50.4552C564.597 50.9383 564.594 51.4918 564.401 51.9659C564.369 52.0425 564.332 52.1168 564.288 52.1871C564.262 52.2303 564.253 52.2304 564.27 52.2757C564.29 52.3261 564.325 52.375 564.348 52.4242C564.424 52.5849 564.476 52.7553 564.509 52.9293C564.564 53.2148 564.591 53.5148 564.537 53.8024C564.512 53.9359 564.469 54.0665 564.402 54.1855C564.368 54.2461 564.329 54.3036 564.284 54.3569C564.261 54.3845 564.236 54.4109 564.211 54.4362C564.196 54.4506 564.176 54.4632 564.164 54.4794C564.133 54.5187 564.127 54.4864 564.143 54.5441C564.165 54.6248 564.215 54.7045 564.245 54.7831C564.277 54.864 564.305 54.9461 564.332 55.029C564.384 55.1968 564.429 55.3677 564.457 55.5415C564.511 55.8752 564.501 56.2307 564.344 56.537C564.276 56.668 564.179 56.7829 564.062 56.8723C564.004 56.916 563.942 56.9537 563.877 56.9846C563.843 57.0006 563.8 57.0074 563.785 57.0399C563.769 57.0748 563.793 57.1441 563.799 57.1831C563.847 57.5225 563.871 57.8788 563.771 58.2114C563.678 58.5177 563.473 58.7882 563.207 58.9673C562.692 59.3147 561.998 59.2951 561.456 59.017C561.315 58.9445 561.183 58.8545 561.065 58.7483C560.765 59.1521 560.148 59.1393 559.71 59.0242C559.163 58.8809 558.725 58.5012 558.473 58.0022C558.128 58.4225 557.403 58.2861 557.164 57.8302C557.105 57.7186 557.07 57.5956 557.053 57.4712C557.044 57.4057 557.05 57.3397 557.043 57.2748C557.034 57.1921 556.979 57.1117 556.947 57.0316C556.886 56.8759 556.847 56.715 556.846 56.547C556.845 56.4593 556.856 56.3738 556.864 56.2868C556.872 56.2084 556.85 56.1355 556.838 56.0581C556.978 56.0812 557.148 56.0434 557.28 56.0028C557.41 55.963 557.531 55.858 557.622 55.7621C557.835 55.5395 557.964 55.2477 558.053 54.9573C558.248 54.3198 558.168 53.555 557.527 53.2052C557.228 53.0422 556.333 53.0428 555.977 53.1233C555.603 53.208 555.179 54.0334 555.158 54.1109C555.146 54.1589 555.152 54.2184 555.108 54.2504C555.011 54.3207 554.851 54.1986 554.78 54.1384C554.656 54.0344 554.568 53.8961 554.492 53.7558C554.326 53.4503 554.192 53.1227 554.097 52.7882C554.025 52.5303 553.978 52.2644 553.883 52.0131C553.788 51.7631 553.638 51.5396 553.406 51.398C553.153 51.2439 552.863 51.1627 552.586 51.0659C552.31 50.9699 552.04 50.8526 551.827 50.649C551.78 50.6042 551.734 50.5566 551.697 50.5039C551.667 50.4623 551.637 50.3826 551.592 50.3562C551.521 50.3152 551.418 50.4219 551.357 50.4607C551.056 50.6519 550.805 50.9187 550.602 51.21C550.401 51.4998 550.236 51.7787 550.101 52.1023C550.002 52.3423 549.939 52.6496 549.764 52.8463C549.686 52.9341 549.104 52.9873 548.916 52.9106C548.727 52.8339 548.516 52.6348 548.453 52.5101C548.388 52.3824 548.373 52.2421 548.4 52.1023C548.417 52.02 548.45 51.9432 548.468 51.8624C548.483 51.7945 548.497 51.7304 548.53 51.6682C548.593 51.5504 548.7 51.4658 548.829 51.4304C548.695 51.3066 548.583 51.1586 548.506 50.9931C548.427 50.8211 548.359 50.6121 548.34 50.4234C548.324 50.2701 548.348 50.1113 548.432 49.9796C548.52 49.8414 548.676 49.7513 548.811 49.6651C548.605 49.5039 548.428 49.3078 548.283 49.0907C548.001 48.6685 547.827 48.1363 547.97 47.633Z" fill="#191847"/>
<path fillRule="evenodd" clipRule="evenodd" d="M560.915 84.5449L549.95 113.559L542.265 134.943H537.882L548.447 84.5449L560.915 84.5449Z" fill="#0C5C56"/>
<path fillRule="evenodd" clipRule="evenodd" d="M563.626 84.5449C563.745 94.5001 563.659 107.903 563.936 108.524C564.122 108.937 569.88 113.651 581.212 122.665L578.953 126.506C565.5 117.83 558.429 112.914 557.741 111.758C556.709 110.024 551.526 94.0689 548.829 84.5449H563.626Z" fill="#106A63"/>
<path fillRule="evenodd" clipRule="evenodd" d="M585.185 125.25L581.37 122.347L578.292 126.015C578.055 128.781 577.139 131.882 575.545 135.32L576.243 135.907L581.814 129.268L583.37 126.704L583.719 126.997L585.185 125.25Z" fill="#191847"/>
<path fillRule="evenodd" clipRule="evenodd" d="M542.672 139.049L542.444 134.26H537.655C535.384 135.856 532.419 137.148 528.761 138.137V139.049H537.427L540.391 138.593V139.049H542.672Z" fill="#191847"/>
<path fillRule="evenodd" clipRule="evenodd" d="M541.304 75.4921L532.3 74.2639C530.499 73.262 528.842 72.5838 527.329 72.2292C526.904 72.2168 526.226 72.3715 527.235 73.2126C528.244 74.0537 529.268 74.9841 529.088 75.4329C528.908 75.8818 527.97 75.7148 527.815 76.4052C527.711 76.8654 529.234 76.9402 532.383 76.6295L539.689 79.526L541.304 75.4921ZM569.589 77.5761L564.595 77.5949C570.071 89.9171 572.926 96.3689 573.161 96.9501C573.688 98.2578 572.572 100.25 572.094 101.32C573.649 102.016 573.484 99.4384 575.446 100.351C577.236 101.184 578.599 102.694 580.668 101.417C580.922 101.26 581.201 100.669 580.527 100.208C578.849 99.057 576.431 97.0434 576.105 96.3806C575.659 95.4767 573.487 89.2086 569.589 77.5761Z" fill="#997659"/>
<path fillRule="evenodd" clipRule="evenodd" d="M555.91 61.7372L552.001 61.9977C551.038 70.7094 545.793 76.212 534.049 74.3492L532.489 85.5679C543.465 86.9863 553.091 82.5921 555.064 70.6946C555.574 67.6147 555.978 64.4094 555.91 61.7372Z" fill="#AFB9C5"/>
<path fillRule="evenodd" clipRule="evenodd" d="M557.84 60.6013L551.916 61.958C551.916 72.147 548.67 78.6477 547.006 86.1389H563.005C563.23 88.7275 563.368 91.388 563.44 94.1206H575.42C572.705 79.677 566.976 68.5027 558.231 60.5977H557.843L557.84 60.6013Z" fill="#C5CFD6"/>
<path fillRule="evenodd" clipRule="evenodd" d="M560.48 71.6035C560.892 77.9526 560.65 82.7979 559.752 86.1394H563.004C562.557 81.0115 561.77 76.1662 560.48 71.6035Z" fill="black" fill-opacity="0.1"/>
<path fillRule="evenodd" clipRule="evenodd" d="M651.505 86.4064C651.094 91.9969 624.604 108.456 624.45 108.918C624.381 109.123 627.13 115.611 632.695 128.382L630.38 129.278C621.843 115.753 617.794 108.27 618.232 106.829C618.86 104.765 625.711 97.9777 638.785 86.4658L651.505 86.4064Z" fill="#B28B67"/>
<path fillRule="evenodd" clipRule="evenodd" d="M632.085 125.498L628.304 126.869C620.332 117.909 617.208 110.516 617.777 106.75C618.157 104.239 624.985 97.4622 638.26 86.4208L651.776 86.4208C651.315 99.3675 626.762 108.968 626.433 109.519C626.105 110.071 629.337 115.475 632.085 125.498Z" fill="#2F3676"/>
<path fillRule="evenodd" clipRule="evenodd" d="M633.553 127.955C634.026 128.508 634.32 128.943 634.436 129.261C634.576 129.647 634.717 130.235 634.858 131.023C634.41 131.186 630.381 132.652 622.772 135.422C622.08 134.498 622.057 133.871 622.704 133.542C623.35 133.213 623.885 132.934 624.308 132.704L629.015 128.155C629.105 128.067 629.25 128.07 629.337 128.161C629.339 128.162 629.34 128.164 629.342 128.165L630.021 128.91C630.754 128.974 631.317 128.935 631.708 128.792C632.026 128.676 632.419 128.388 632.886 127.927C633.066 127.75 633.354 127.752 633.531 127.931C633.539 127.939 633.546 127.947 633.553 127.955Z" fill="#E4E4E4"/>
<path fillRule="evenodd" clipRule="evenodd" d="M648.46 86.4062L660.26 114.626L671.858 138.484H669.122L639.184 86.4062H648.46Z" fill="#997659"/>
<path fillRule="evenodd" clipRule="evenodd" d="M672.022 137.406C672.277 138.087 672.404 138.596 672.404 138.934C672.404 139.346 672.336 139.946 672.199 140.735C671.722 140.735 667.434 140.735 659.336 140.735C659.002 139.63 659.195 139.033 659.915 138.945C660.635 138.857 661.234 138.777 661.71 138.706L667.688 136.041C667.803 135.99 667.938 136.042 667.989 136.157C667.99 136.159 667.991 136.161 667.992 136.163L668.376 137.095C669.043 137.406 669.585 137.561 670.001 137.561C670.34 137.561 670.808 137.425 671.404 137.151C671.633 137.046 671.904 137.147 672.009 137.376C672.014 137.386 672.018 137.396 672.022 137.406Z" fill="#E4E4E4"/>
<path fillRule="evenodd" clipRule="evenodd" d="M670.811 133.528L664.73 134.664C660.029 127.779 640.354 99.5483 638.197 86.4062H651.733C658.937 95.9066 666.329 126.529 670.811 133.528Z" fill="#5C63AB"/>
<path fillRule="evenodd" clipRule="evenodd" d="M644.237 58.9478C644.961 57.5073 645.289 55.8815 644.767 54.2813C643.265 49.6707 636.931 52.3468 636.239 55.0353C635.547 57.7238 637.198 63.6946 638.961 63.7048C639.664 63.7089 640.968 62.9443 642.188 61.731L642.861 68.2618L648.171 66.9377L644.237 58.9478Z" fill="#B28B67"/>
<path fillRule="evenodd" clipRule="evenodd" d="M636.003 56.2233C635.979 55.9031 636.022 55.5301 636.054 55.2137C636.094 54.8059 636.212 54.4178 636.356 54.044C636.625 53.3404 636.994 52.6739 637.437 52.0864C638.247 51.0133 639.42 50.2182 640.729 50.0552C641.389 49.9729 642.072 50.0601 642.702 50.3315C643.272 50.5768 643.866 50.9986 644.496 50.8826C645.18 50.7564 645.652 50.0123 646.102 49.5131C646.609 48.9503 647.183 48.4892 647.867 48.1952C649.012 47.7026 650.233 47.8228 651.298 48.5886C652.432 49.4035 653.446 50.7599 653.212 52.2723C653.169 52.5534 653.085 52.8023 652.932 53.0293C652.791 53.2375 652.558 53.4799 652.55 53.7587C652.541 54.0551 652.863 54.3543 653.015 54.5817C653.234 54.9074 653.434 55.2567 653.493 55.6553C653.591 56.3098 653.337 57.0209 653.014 57.5476C652.685 58.0836 652.211 58.4623 651.667 58.718C651.303 58.8888 650.923 59.0278 650.527 59.0963C650.331 59.1303 650.148 59.1196 649.95 59.124C649.758 59.1282 649.669 59.2014 649.539 59.3386C648.938 59.9759 648.212 60.3454 647.368 60.4833C646.656 60.5997 645.81 60.6326 645.123 60.3006C644.359 59.932 644.191 59.2031 644.146 58.3906C644.008 58.5073 643.584 58.664 643.767 58.2904C643.84 58.1425 644.023 58.0441 644.137 57.9392C644.271 57.8171 644.4 57.6698 644.486 57.5035C644.832 56.8317 644.064 55.8315 643.41 55.7982C642.439 55.7486 642.552 57.0647 641.989 57.5527C641.666 57.8334 641.214 57.6727 640.871 57.4793C640.411 57.2201 640.041 56.8171 639.704 56.3972C639.426 56.0514 639.16 55.6971 638.879 55.3541C638.748 55.1939 638.323 54.7548 638.421 54.5123C637.743 54.5457 637.089 54.9917 636.619 55.4799C636.425 55.6817 636.289 55.8846 636.23 56.1702C636.217 56.2314 636.2 56.408 636.13 56.4326C635.999 56.4784 636.009 56.3038 636.003 56.2233Z" fill="#191847"/>
<path fillRule="evenodd" clipRule="evenodd" d="M629.754 84.4339L622.573 89.8754C620.61 90.4395 618.973 91.1273 617.664 91.9387C617.356 92.2276 616.988 92.8083 618.283 92.6865C619.578 92.5646 620.945 92.4944 621.132 92.9313C621.319 93.3683 620.543 93.9082 620.915 94.4957C621.163 94.8873 622.285 93.8749 624.28 91.4584L631.431 88.3607L629.754 84.4339ZM657.683 84.1299L652.918 84.2317C656.025 93.6311 657.701 98.6179 657.945 99.1921C658.496 100.484 657.414 102.485 656.955 103.558C658.522 104.223 658.312 101.662 660.289 102.536C662.094 103.334 663.482 104.812 665.529 103.506C665.781 103.345 666.049 102.752 665.368 102.304C663.67 101.189 661.217 99.2278 660.879 98.5741C660.418 97.6826 659.352 92.8678 657.683 84.1299Z" fill="#B28B67"/>
<path fillRule="evenodd" clipRule="evenodd" d="M643.794 64.4712L641.817 64.1691C634.611 70.5851 631.817 82.7182 622.962 89.2743L625.167 91.8987C640.689 89.7106 644.288 74.9078 643.794 64.4712Z" fill="#0C5C56"/>
<path fillRule="evenodd" clipRule="evenodd" d="M652.82 88.9767C644.914 89.1147 639.099 89.2162 635.374 89.2812C634.577 89.2951 634.707 88.1471 634.812 87.5671C636.026 80.8732 641.092 73.592 640.926 64.0965L645.945 63.2235C650.223 69.8119 651.806 77.9879 652.82 88.9767Z" fill="#DDE3E9"/>
<path fillRule="evenodd" clipRule="evenodd" d="M652.342 69.6608C653.07 69.439 653.64 68.9413 654.053 68.1678C655.835 64.8333 655.139 63.0267 653.163 62.4633C651.187 61.9 649.455 63.1616 646.324 63.2163C646.153 63.2193 645.998 63.2326 645.856 63.2563L644.282 63.3733C640.029 78.6947 638.96 88.886 641.075 93.9473L654.806 93.7076C655.653 95.5811 656.459 97.1557 657.225 98.4315L660.967 98.3662C661.121 87.0308 658.246 77.4623 652.342 69.6608Z" fill="#127B74"/>
<path fillRule="evenodd" clipRule="evenodd" d="M651.68 85.9311C651.311 89.534 650.654 92.1557 649.711 93.7961L654.807 93.7071C653.819 91.5217 652.777 88.9297 651.68 85.9311Z" fill="black" fill-opacity="0.1"/>
</g>
<defs>
<clipPath id="clip0_6041_31054">
<rect width="80" height="101.053" fill="white" transform="translate(164 40)"/>
</clipPath>
</defs>
</svg>
