<svg width="775" height="181" viewBox="0 0 775 181" fill="none" xmlns="http://www.w3.org/2000/svg">
<mask id="mask0_5004_10125" style="mask-type:alpha" maskUnits="userSpaceOnUse" x="0" y="0" width="775" height="181">
<rect width="775" height="181" fill="white"/>
</mask>
<g mask="url(#mask0_5004_10125)">
<rect width="1263" height="181.053" transform="translate(-225)" fill="white"/>
<path fillRule="evenodd" clipRule="evenodd" d="M-13.459 84.5449L3.48638 112.875L16.1905 136.825H18.9269L-2.35909 84.5449L-13.459 84.5449Z" fill="#997659"/>
<path fillRule="evenodd" clipRule="evenodd" d="M14.5175 135.718C14.2623 136.399 14.1348 136.909 14.1348 137.247C14.1348 137.658 14.2033 138.258 14.3403 139.047C14.8174 139.047 19.1048 139.047 27.2026 139.047C27.5368 137.942 27.3439 137.346 26.6237 137.258C25.9036 137.169 25.3054 137.09 24.829 137.019L18.8508 134.354C18.7357 134.303 18.6009 134.354 18.5496 134.469C18.5488 134.471 18.5479 134.473 18.5471 134.475L18.1628 135.407C17.4962 135.718 16.9544 135.874 16.5376 135.874C16.199 135.874 15.7313 135.737 15.1346 135.464C14.9057 135.359 14.6349 135.459 14.53 135.688C14.5254 135.698 14.5213 135.708 14.5175 135.718Z" fill="#E4E4E4"/>
<path fillRule="evenodd" clipRule="evenodd" d="M12.6626 132.99L17.9396 131.393C15.6276 124.482 12.7939 116.876 9.43853 108.575C6.08315 100.275 2.47959 92.2647 -1.37214 84.5449H-16.2764C-11.9941 94.3101 -7.45427 103.183 -2.65695 111.164C2.14036 119.144 7.24687 126.42 12.6626 132.99Z" fill="#CDD422"/>
<path fillRule="evenodd" clipRule="evenodd" d="M-12.7538 61.1192C-12.7006 60.9458 -12.6465 60.772 -12.5917 60.5977L-12.3892 60.6929C-12.3576 60.6603 -12.3258 60.6286 -12.2937 60.5977L-5.91054 61.5846C-5.91054 65.1743 -3.05442 68.5329 -1.24761 71.4226C1.56109 75.9147 6.55889 80.8938 3.3545 87.5674C0.467182 93.5806 -7.05365 94.5571 -19.208 90.4969C-19.208 87.2581 -16.5459 84.0021 -16.4611 80.0639C-16.3803 76.3149 -15.6794 64.9562 -12.7538 61.1192Z" fill="#C1DEE2"/>
<path fillRule="evenodd" clipRule="evenodd" d="M-4.82422 85.8627C-4.39734 83.6597 -4.12042 82.189 -3.99345 81.4505C-0.592814 85.2933 1.37176 87.237 1.90026 87.2815C2.89423 87.3654 3.62868 86.4839 3.83781 86.7317C4.18346 87.7579 3.2072 90.3267 1.34108 90.7002C0.449977 90.8786 -0.928961 89.041 -1.49711 88.3899C-1.72057 88.1338 -2.82961 87.2914 -4.82422 85.8627ZM1.04987 74.1172C1.9314 74.1172 2.40492 74.4816 2.92614 75.2169C3.44737 75.9522 3.94059 79.4199 3.10375 79.4199C2.26691 79.4199 -1.23922 78.0794 -1.23922 77.1782C-1.23922 76.277 1.15316 75.8953 1.15316 75.2169C1.15316 74.5385 0.168343 74.1172 1.04987 74.1172Z" fill="#B28B67"/>
<path fillRule="evenodd" clipRule="evenodd" d="M81.2042 59.6611C80.2778 58.4059 79.6963 56.9063 79.9242 55.2876C80.5808 50.6234 87.0334 52.1108 88.1372 54.5652C89.241 57.0196 88.6705 63.0098 87.0007 63.3179C86.3347 63.4408 84.97 62.9303 83.6115 61.9763L84.0614 68.3367L78.8048 67.9691L81.2042 59.6611Z" fill="#915B3C"/>
<path fillRule="evenodd" clipRule="evenodd" d="M77.741 53.567C77.583 53.3869 77.5072 53.1403 77.443 52.9067C77.3764 52.664 77.3123 52.419 77.2743 52.1686C77.1983 51.6682 77.2369 51.1016 77.6151 50.7437C77.9184 50.4566 78.3509 50.3486 78.7433 50.346C79.0047 50.3442 79.2693 50.3993 79.5128 50.4987C79.7544 50.5973 79.9563 50.7742 80.189 50.8915C80.2353 50.3613 80.3651 49.8122 80.6661 49.3777C80.9558 48.9597 81.3861 48.7439 81.8612 48.712C82.3488 48.6793 82.8179 48.8257 83.2339 49.0898C83.3381 49.1559 83.441 49.2248 83.5388 49.3014C83.6207 49.3655 83.7051 49.4418 83.8043 49.4725C83.9149 49.5067 83.9751 49.4457 84.0539 49.3688C84.1463 49.2786 84.2487 49.2007 84.3561 49.1328C84.8309 48.8324 85.4329 48.7374 85.9421 48.9729C86.1768 49.0814 86.4003 49.2535 86.5488 49.4795C86.6812 49.6809 86.764 49.9915 86.9559 50.1388C87.0373 50.2013 87.1028 50.1306 87.1844 50.0806C87.307 50.0056 87.4248 49.9216 87.5486 49.8489C87.7226 49.7468 87.9082 49.6743 88.1038 49.6432C88.3901 49.5977 88.7784 49.6402 88.8331 50.0149C88.8537 50.1556 88.8201 50.3022 88.8006 50.4412C88.7738 50.632 88.7464 50.8227 88.7163 51.0131C88.6935 51.1576 88.6677 51.2969 88.6303 51.4377C88.6104 51.5128 88.5546 51.6515 88.5819 51.73C88.6161 51.8281 88.8081 51.7871 88.8883 51.796C89.0466 51.8137 89.2042 51.8527 89.3463 51.9308C89.4564 51.9914 89.5707 52.0771 89.6096 52.2109C89.6335 52.2932 89.62 52.3749 89.6003 52.4564C89.5766 52.5542 89.5921 52.608 89.5976 52.7087C89.8183 52.6186 90.5738 52.4369 90.6401 52.8257C90.6622 52.9551 90.5816 53.0941 90.5203 53.1976C90.4128 53.3794 90.277 53.5428 90.1391 53.6981C89.8513 54.022 89.5157 54.2954 89.1591 54.5242C89.5438 54.7285 89.6111 55.2564 89.2456 55.5425C89.0843 55.6689 88.8781 55.6851 88.6872 55.6629C88.6174 55.6548 88.5182 55.6208 88.4622 55.6292C88.4321 55.6337 88.3986 55.6566 88.3573 55.6565C88.0858 55.6562 87.7853 55.5697 87.5254 55.4913C87.0622 55.3516 86.6323 55.0974 86.2922 54.7324C86.2049 54.6388 86.1313 54.5832 86.0056 54.5757C85.8954 54.5691 85.7853 54.5918 85.6751 54.5869C85.3836 54.5739 85.1311 54.4133 84.8675 54.2997C84.8254 54.6636 84.6934 55.0584 84.5211 55.3764C84.3805 55.6358 84.1235 55.6569 83.872 55.6629C83.0676 55.6822 82.2715 55.5422 81.4713 55.4874C82.2336 55.7166 83.029 55.8448 83.7822 56.1045C84.1227 56.2218 83.8414 56.4372 83.6817 56.5889C83.4187 56.8388 83.2139 57.1569 83.0635 57.4966C82.7192 56.9762 82.0722 56.6039 81.4683 56.7142C80.801 56.8359 80.2774 57.6902 80.652 58.3569C80.8695 58.7439 81.299 58.9175 81.6536 59.102C81.3476 59.3787 81.248 59.8119 81.0504 60.1689C80.953 60.345 80.8198 60.5424 80.6259 60.5926C80.5542 60.6112 80.4719 60.6074 80.4126 60.6607C80.3392 60.7266 80.3174 60.8046 80.2257 60.8592C79.8598 61.0774 79.316 61.0206 79.0288 60.6824C78.7691 60.3765 78.8736 59.9285 79.1275 59.6545C78.7665 59.4735 78.1029 59.2268 78.2912 58.6578C77.4892 58.548 75.6242 57.1044 76.7725 56.2251C76.2024 55.8481 75.7145 54.9902 76.1462 54.2943C76.4787 53.7584 77.1788 53.5574 77.741 53.567Z" fill="#191847"/>
<path fillRule="evenodd" clipRule="evenodd" d="M74.4902 87.0996L90.8047 114.374L103.036 137.433H105.67L85.1769 87.0996L74.4902 87.0996Z" fill="#784931"/>
<path fillRule="evenodd" clipRule="evenodd" d="M101.425 136.368C101.179 137.024 101.057 137.514 101.057 137.84C101.057 138.236 101.123 138.813 101.255 139.573C101.714 139.573 105.842 139.573 113.638 139.573C113.96 138.509 113.774 137.935 113.081 137.85C112.387 137.765 111.811 137.689 111.353 137.62L105.597 135.054C105.486 135.005 105.357 135.055 105.307 135.165C105.306 135.167 105.305 135.169 105.305 135.171L104.935 136.069C104.293 136.368 103.771 136.518 103.37 136.518C103.044 136.518 102.594 136.386 102.019 136.123C101.799 136.022 101.538 136.118 101.437 136.339C101.433 136.348 101.429 136.358 101.425 136.368Z" fill="#E4E4E4"/>
<path fillRule="evenodd" clipRule="evenodd" d="M99.6389 133.741L104.719 132.204C102.494 125.549 99.7653 118.227 96.5349 110.235C93.3044 102.244 89.835 94.532 86.1267 87.0996H71.7773C75.9002 96.5013 80.271 105.044 84.8897 112.727C89.5084 120.411 94.4248 127.415 99.6389 133.741Z" fill="#5C63AB"/>
<path fillRule="evenodd" clipRule="evenodd" d="M73.4177 87.0996C71.878 96.6842 68.9081 108.93 68.6279 109.308C68.441 109.559 61.7145 111.813 48.4482 116.069L49.0173 118.393C64.8373 116.11 73.1731 114.339 74.0246 113.08C75.302 111.191 81.6801 96.269 84.1504 87.0996H73.4177Z" fill="#915B3C"/>
<path fillRule="evenodd" clipRule="evenodd" d="M53.1123 114.061L54.1147 117.803C65.9471 118.841 73.1971 118.091 75.8646 115.553C78.5322 113.016 81.5724 103.531 84.9853 87.0996H71.3023C69.14 100.555 67.9311 107.565 67.6757 108.13C67.4202 108.695 62.5658 110.672 53.1123 114.061Z" fill="#8991DC"/>
<path fillRule="evenodd" clipRule="evenodd" d="M49.0982 115.102C48.4098 114.974 47.9053 114.938 47.5847 114.995C47.1948 115.064 46.6373 115.229 45.9122 115.491C45.9919 115.943 46.7087 120.008 48.0625 127.686C49.1661 127.818 49.6995 127.535 49.6626 126.838C49.6258 126.14 49.6012 125.56 49.5889 125.096L51.1163 118.983C51.1457 118.865 51.0742 118.746 50.9565 118.716C50.9545 118.716 50.9525 118.715 50.9505 118.715L50.0024 118.506C49.596 117.926 49.358 117.439 49.2883 117.044C49.2317 116.722 49.2832 116.256 49.4428 115.645C49.504 115.41 49.3635 115.17 49.1288 115.109C49.1187 115.106 49.1085 115.104 49.0982 115.102Z" fill="#E4E4E4"/>
<path fillRule="evenodd" clipRule="evenodd" d="M94.0848 84.9355L100.089 91.2164C101.871 92.051 103.323 92.9546 104.445 93.9271C104.694 94.2495 104.956 94.8598 103.743 94.5485C102.53 94.2371 101.24 93.9642 100.997 94.3536C100.753 94.7431 101.409 95.3758 100.966 95.8812C100.671 96.2181 99.7577 95.0818 98.2261 92.4721L91.8956 88.4356L94.0848 84.9355ZM63.2452 77.3225L66.9315 78.6835C60.9655 86.6743 57.7807 90.894 57.3772 91.3426C56.4691 92.352 56.8236 94.5216 56.9032 95.6471C55.2669 95.7646 56.2655 93.4874 54.19 93.6672C52.2955 93.8312 50.566 94.7484 49.1145 92.9121C48.9361 92.6864 48.8785 92.0599 49.6398 91.8639C51.5367 91.3755 54.3873 90.35 54.9012 89.8579C55.6019 89.1869 58.3832 85.0085 63.2452 77.3225Z" fill="#915B3C"/>
<path fillRule="evenodd" clipRule="evenodd" d="M95.5946 85.7697C96.4932 85.8625 97.4325 86.1797 98.406 86.7109C98.8849 86.9723 99.0614 87.5724 98.8 88.0514C98.6482 88.3296 98.3821 88.5058 98.0918 88.5533C98.2644 88.7327 98.4388 88.9116 98.6152 89.09L96.2489 92.3353C89.5707 87.3935 83.1742 83.4276 81.101 76.8477C80.4052 74.6393 81.9729 67.831 82.3132 65.3136L84.793 64.773C86.8416 72.0046 90.077 79.1665 95.5946 85.7697Z" fill="#69A1AC"/>
<path fillRule="evenodd" clipRule="evenodd" d="M70.0921 87.121C76.7581 89.0663 82.1086 90.0098 86.1436 89.9513C86.6435 89.944 86.9899 87.8556 86.866 87.2467C84.9369 77.7646 83.784 70.8691 84.8699 64.7108C84.1701 64.9325 83.0397 64.7849 81.4789 64.268C76.0541 69.8551 72.7909 76.7878 70.0921 87.121Z" fill="#191847"/>
<path fillRule="evenodd" clipRule="evenodd" d="M68.6446 87.9465C68.4521 87.6885 68.3891 87.3417 68.5074 87.0167L68.7327 86.3977C68.8854 85.9783 69.2926 85.725 69.7164 85.7489C69.8461 85.4373 69.9655 85.1261 70.0736 84.8154C70.9865 82.1904 70.7079 79.4096 71.2016 76.8141C67.2017 79.1675 63.1795 83.7397 59.135 90.5308L55.2632 88.6091C55.5211 88.0577 55.7833 87.5144 56.0498 86.9792C55.6257 86.6283 55.2913 85.3039 55.7239 85.1684C56.1707 85.0285 56.6307 84.9557 57.1029 84.9484C62.8359 74.3306 70.4135 67.1623 79.8357 63.4434L81.0036 63.6493L82.2947 63.877C79.8825 73.3238 86.1968 95.9901 79.5768 113.23C72.906 113.531 64.5297 107.456 54.9826 109.446C56.5821 102.316 64.7191 95.0424 68.6446 87.9465Z" fill="#89C5CC"/>
<path fillRule="evenodd" clipRule="evenodd" d="M80.6903 63.8164L78.9699 67.0502L80.7629 70.018L78.3764 71.6809L81.8051 80.9568L77.2787 71.5046L79.632 69.8185L78.0387 67.1943L80.6903 63.8164Z" fill="black" fill-opacity="0.1"/>
<path fillRule="evenodd" clipRule="evenodd" d="M79.7923 83.9467C79.3146 83.8625 78.9957 83.407 79.0799 82.9293C79.1641 82.4517 79.6196 82.1327 80.0973 82.217C80.575 82.3012 80.8939 82.7567 80.8097 83.2343C80.7255 83.712 80.27 84.031 79.7923 83.9467ZM79.9965 89.1104C79.5189 89.0262 79.1999 88.5707 79.2841 88.0931C79.3684 87.6154 79.8239 87.2965 80.3015 87.3807C80.7792 87.4649 81.0981 87.9204 81.0139 88.3981C80.9297 88.8757 80.4742 89.1947 79.9965 89.1104ZM79.3358 94.1217C78.8582 94.0374 78.5392 93.5819 78.6235 93.1043C78.7077 92.6266 79.1632 92.3077 79.6409 92.3919C80.1185 92.4761 80.4375 92.9316 80.3532 93.4093C80.269 93.8869 79.8135 94.2059 79.3358 94.1217Z" fill="black" fill-opacity="0.4"/>
<path fillRule="evenodd" clipRule="evenodd" d="M165.815 58.1683C164.803 56.9807 164.119 55.5254 164.233 53.8946C164.563 49.196 171.103 50.2297 172.376 52.6011C173.648 54.9726 173.497 60.988 171.852 61.4118C171.197 61.5809 169.8 61.1668 168.378 60.3098L169.27 66.6234H164.001L165.815 58.1683Z" fill="#57331F"/>
<path fillRule="evenodd" clipRule="evenodd" d="M168.641 54.4128C168.843 57.2225 169.377 58.6273 170.242 58.6273C171.54 58.6273 172.642 57.8032 173.211 57.8032C173.627 57.8032 173.534 58.3228 173.259 58.7081C173.031 59.0259 171.926 59.3323 171.926 59.8251C171.926 60.3179 172.799 59.9366 172.799 60.2289C172.799 60.7123 172.953 61.6213 172.114 61.6213C171.265 61.6213 168.83 61.3118 168.413 60.0515C168.144 59.2382 167.969 57.5528 167.891 54.9953C167.839 54.9892 167.787 54.986 167.733 54.986C167.006 54.986 166.416 55.5758 166.416 56.3034C166.416 56.6727 166.568 57.0066 166.813 57.2458C166.508 57.676 166.167 58.1255 165.775 58.5892C164.304 57.7069 163.213 55.1241 164.651 52.643C165.048 51.4275 165.948 50.7783 167.011 50.4768C167.871 50.1168 168.765 50.0762 169.519 50.292C170.997 50.4189 172.318 50.8697 172.692 51.1374C172.692 52.5371 172.421 52.9524 170.104 52.9158C169.535 53.2164 169.097 53.7341 168.641 54.4128Z" fill="#191847"/>
<path fillRule="evenodd" clipRule="evenodd" d="M163.578 84.791L174.354 112.066L181.582 135.125H184.436L173.387 84.791L163.578 84.791Z" fill="#3D2216"/>
<path fillRule="evenodd" clipRule="evenodd" d="M161.408 84.791C161.293 94.3756 159.62 107.28 159.353 107.877C159.174 108.275 153.021 113.341 140.893 123.072L142.858 125.176C157.169 116.832 164.655 112.104 165.317 110.991C166.311 109.322 169.544 93.9604 172.141 84.791H161.408Z" fill="#57331F"/>
<path fillRule="evenodd" clipRule="evenodd" d="M140.63 122.369C139.97 122.603 139.515 122.824 139.266 123.033C138.962 123.288 138.562 123.71 138.065 124.299C138.36 124.651 141.014 127.813 146.025 133.785C147.047 133.348 147.367 132.836 146.987 132.251C146.606 131.665 146.294 131.175 146.052 130.779L144.318 124.721C144.285 124.604 144.163 124.537 144.046 124.57C144.044 124.571 144.043 124.571 144.041 124.572L143.115 124.866C142.473 124.566 142.023 124.263 141.765 123.956C141.556 123.706 141.367 123.276 141.2 122.667C141.135 122.433 140.894 122.296 140.66 122.36C140.65 122.363 140.64 122.366 140.63 122.369Z" fill="#E4E4E4"/>
<path fillRule="evenodd" clipRule="evenodd" d="M180.413 134.059C180.168 134.715 180.045 135.206 180.045 135.531C180.045 135.927 180.111 136.505 180.243 137.264C180.702 137.264 184.83 137.264 192.626 137.264C192.948 136.201 192.762 135.626 192.069 135.541C191.376 135.457 190.8 135.38 190.341 135.312L184.585 132.746C184.475 132.696 184.345 132.746 184.295 132.857C184.295 132.859 184.294 132.861 184.293 132.862L183.923 133.76C183.281 134.059 182.76 134.209 182.358 134.209C182.032 134.209 181.582 134.077 181.008 133.814C180.787 133.713 180.526 133.81 180.425 134.03C180.421 134.04 180.417 134.049 180.413 134.059Z" fill="#E4E4E4"/>
<path fillRule="evenodd" clipRule="evenodd" d="M170.823 132.749L184.393 131.277L174.336 84.791H162.183L170.823 132.749Z" fill="#69A1AC"/>
<path fillRule="evenodd" clipRule="evenodd" d="M143.699 119.679L152.6 130.214C161.975 119.975 167.441 113.294 168.997 110.171C170.553 107.048 171.952 98.588 173.194 84.791H159.511C158.833 96.929 158.376 103.28 158.14 103.845C157.903 104.41 153.09 109.688 143.699 119.679Z" fill="#89C5CC"/>
<path fillRule="evenodd" clipRule="evenodd" d="M182.784 82.0694L189.003 88.1368C190.813 88.9088 192.296 89.7611 193.452 90.6939C193.712 91.0075 193.995 91.6082 192.772 91.3394C191.549 91.0706 190.25 90.8428 190.02 91.2405C189.79 91.6382 190.468 92.2477 190.043 92.7682C189.76 93.1152 188.807 92.0114 187.186 89.4569L180.718 85.6438L182.784 82.0694ZM152.37 76.5781L157.178 76.5962C153.516 88.4597 151.572 94.6712 151.346 95.2308C150.838 96.4898 151.913 98.4074 152.373 99.4378C150.876 100.108 151.035 97.6264 149.146 98.5052C147.422 99.3074 146.111 100.761 144.119 99.5316C143.874 99.3805 143.606 98.8116 144.254 98.367C145.869 97.2593 148.197 95.3206 148.512 94.6825C148.941 93.8123 150.227 87.7775 152.37 76.5781Z" fill="#57331F"/>
<path fillRule="evenodd" clipRule="evenodd" d="M167.02 62.9392L168.918 62.6135C171.909 73.1856 187.276 80.392 188.219 84.3441C188.565 85.7934 187.522 86.5261 188.061 86.9675L185.593 88.774C185.175 88.2864 184.283 89.1783 182.421 88.5544C180.559 87.9306 167.02 75.4574 167.02 62.9392Z" fill="#191847"/>
<path fillRule="evenodd" clipRule="evenodd" d="M170.213 64.3454C169.994 78.342 178.085 81.9123 176.283 87.5272C174.795 92.1639 160.55 97.1483 158.085 92.6033C157.087 90.7635 156.634 88.5384 156.583 86.1193C155.953 87.9778 155.454 89.5778 155.088 90.9192C154.456 93.2333 152.004 93.6012 152.004 94.4927L148.775 93.6012C148.994 92.39 147.471 91.8003 147.879 89.0945C149.709 76.9712 154.623 68.1833 162.623 62.731L162.706 61.5475C162.739 61.0636 163.159 60.6988 163.643 60.7326L169.556 61.1462C170.04 61.18 170.405 61.5997 170.371 62.0835L170.213 64.3454Z" fill="#2F3676"/>
<g clip-path="url(#clip0_5004_10125)">
<path fillRule="evenodd" clipRule="evenodd" d="M261.899 58.889C261.333 57.3705 261.182 55.7068 261.873 54.1558C263.864 49.6869 269.88 53.0193 270.28 55.7859C270.679 58.5525 268.395 64.37 266.639 64.1996C265.939 64.1316 264.723 63.2312 263.639 61.8897L262.268 68.3689L257.125 66.497L261.899 58.889Z" fill="#B28B67"/>
<path fillRule="evenodd" clipRule="evenodd" d="M269.677 53.8378C269.585 53.7246 269.392 53.4866 269.287 53.3874C269.262 53.3637 269.109 53.1408 269.103 53.1406C268.927 53.1365 268.402 53.1665 268.302 53.3209C268.291 53.3315 268.281 53.3413 268.271 53.3497C268.164 53.4431 268.062 53.5414 267.962 53.6421C267.741 53.8632 267.533 54.1025 267.331 54.3413C266.938 54.8065 266.565 55.2936 266.206 55.787C265.841 56.2893 265.498 56.807 265.139 57.3145C264.624 58.0448 264.054 58.7328 263.54 59.4633C263.212 59.9298 262.944 60.4249 262.787 60.9707C262.785 60.9772 262.783 60.9836 262.781 60.9903C262.78 60.9931 262.78 60.9958 262.779 60.9986C262.755 61.0827 262.734 61.168 262.716 61.2546C262.701 61.3287 262.686 61.4032 262.671 61.4778C263.016 61.1519 263.329 60.7682 263.643 60.4102C263.673 60.3751 263.703 60.3395 263.733 60.3037C263.816 60.2381 263.9 60.1735 263.984 60.1095C264.516 59.7057 265.048 59.3044 265.569 58.886C266.506 58.1335 267.445 57.3586 268.463 56.7245C268.763 56.5373 269.067 56.3558 269.365 56.1655C269.535 56.0572 269.703 55.9453 269.868 55.8294C269.986 55.7465 270.465 55.4818 270.427 55.2045C270.408 55.0626 269.916 54.1314 269.677 53.8378Z" fill="#2C2C2C"/>
<path fillRule="evenodd" clipRule="evenodd" d="M269.317 53.421C269.417 53.5012 269.448 53.2425 269.368 53.1183C268.995 52.5425 267.081 51.6862 265.242 51.4187C264.009 51.2395 262.461 51.3465 261.269 51.7744C260.195 52.1603 259.227 53.0535 258.548 54.0098C257.835 55.0139 257.365 56.1602 257.12 57.3665C257.066 57.6315 257.059 57.9004 257.015 58.1627C256.965 58.4582 256.894 58.7343 256.886 59.0367C256.881 59.2218 256.916 59.4177 256.903 59.6008C256.888 59.8097 256.791 59.973 256.682 60.1513C256.503 60.4419 256.31 60.7263 256.088 60.9851C255.755 61.3736 255.396 61.7205 255.098 62.1408C254.7 62.7001 253.247 64.462 253.57 65.204L263.539 68.8323C263.537 68.0562 263.077 66.9761 263.191 66.1876C263.259 65.7231 263.559 64.7646 263.562 64.7269C263.901 63.0966 263.732 62.1974 263.555 61.8291C263.378 61.4607 263.042 61.245 263.108 61.0053C263.38 60.0142 264.099 59.231 264.706 58.4346C265.431 57.4854 266.076 56.4771 266.809 55.5353C267.134 55.1183 268.794 53.0046 269.317 53.421Z" fill="#8991DC"/>
<path fillRule="evenodd" clipRule="evenodd" d="M265.418 53.2564C264.608 54.3123 264.295 54.9196 263.783 56.5787L263.599 56.5116C263.814 54.8483 264.648 53.512 265.186 53.172L265.418 53.2564ZM259.255 54.499C259.336 56.4538 259.29 57.5738 260.746 59.6613L260.556 59.7121C259.015 57.9047 258.927 56.386 259.081 54.5162L259.255 54.499ZM262.762 53.8168C262.202 56.3453 261.794 57.7573 262.491 60.9997L262.295 60.9894C261.425 58.0706 261.837 56.0967 262.593 53.7702L262.762 53.8168ZM258.323 60.3173L258.541 60.1888C260.365 61.583 259.651 62.8309 261.753 65.1229L261.489 65.1754C259.559 63.4119 259.76 61.2089 258.323 60.3173Z" fill="black" fill-opacity="0.2"/>
<path fillRule="evenodd" clipRule="evenodd" d="M250.12 86.5801L267.065 114.91L279.77 138.86H282.506L261.22 86.5801L250.12 86.5801Z" fill="#997659"/>
<path fillRule="evenodd" clipRule="evenodd" d="M278.097 137.753C277.841 138.434 277.714 138.944 277.714 139.282C277.714 139.693 277.782 140.293 277.919 141.082C278.396 141.082 282.684 141.082 290.782 141.082C291.116 139.977 290.923 139.381 290.203 139.293C289.483 139.205 288.884 139.125 288.408 139.054L282.43 136.389C282.315 136.338 282.18 136.389 282.129 136.504C282.128 136.506 282.127 136.508 282.126 136.51L281.742 137.442C281.075 137.754 280.534 137.909 280.117 137.909C279.778 137.909 279.31 137.772 278.714 137.499C278.485 137.394 278.214 137.494 278.109 137.723C278.105 137.733 278.1 137.743 278.097 137.753Z" fill="#E4E4E4"/>
<path fillRule="evenodd" clipRule="evenodd" d="M276.242 135.025L281.519 133.428C279.207 126.517 276.373 118.911 273.018 110.61C269.662 102.31 266.059 94.2999 262.207 86.5801H247.303C251.585 96.3453 256.125 105.218 260.922 113.199C265.719 121.18 270.826 128.455 276.242 135.025Z" fill="#074E4A"/>
<path fillRule="evenodd" clipRule="evenodd" d="M249.006 86.5801C247.407 96.5353 244.322 109.254 244.031 109.647C243.837 109.908 236.851 112.25 223.071 116.67L223.662 119.083C240.094 116.712 248.752 114.873 249.637 113.565C250.963 111.603 257.588 96.104 260.154 86.5801H249.006Z" fill="#B28B67"/>
<path fillRule="evenodd" clipRule="evenodd" d="M227.915 114.584L228.956 118.471C241.246 119.549 248.776 118.77 251.547 116.134C254.318 113.498 257.476 103.647 261.021 86.5801H246.808C244.562 100.556 243.307 107.837 243.042 108.424C242.776 109.01 237.734 111.064 227.915 114.584Z" fill="#0C5C56"/>
<path fillRule="evenodd" clipRule="evenodd" d="M223.746 115.664C223.031 115.531 222.507 115.494 222.174 115.553C221.769 115.624 221.19 115.796 220.437 116.068C220.52 116.538 221.264 120.76 222.67 128.735C223.817 128.872 224.371 128.578 224.332 127.854C224.294 127.129 224.269 126.526 224.256 126.045L225.842 119.695C225.873 119.572 225.799 119.449 225.676 119.418C225.674 119.418 225.672 119.417 225.67 119.417L224.685 119.2C224.263 118.598 224.016 118.091 223.944 117.681C223.885 117.347 223.938 116.863 224.104 116.228C224.168 115.984 224.022 115.735 223.778 115.671C223.767 115.668 223.757 115.666 223.746 115.664Z" fill="#E4E4E4"/>
<path fillRule="evenodd" clipRule="evenodd" d="M269.922 86.5776L275.092 93.9752C276.792 95.1196 278.141 96.2803 279.14 97.4574C279.345 97.8274 279.516 98.4935 278.318 97.9767C277.119 97.4599 275.836 96.9697 275.522 97.3275C275.209 97.6852 275.782 98.4387 275.245 98.8822C274.887 99.1778 274.13 97.8678 272.973 94.952L267.105 89.7925L269.922 86.5776ZM240.353 76.0532L244.118 77.6662C237.492 85.5815 233.958 89.7595 233.514 90.2C232.517 91.1911 232.772 93.4514 232.796 94.6182C231.087 94.6473 232.245 92.3521 230.076 92.4208C228.096 92.4834 226.249 93.3331 224.835 91.3552C224.661 91.112 224.634 90.4619 225.436 90.3024C227.435 89.9049 230.455 89.0065 231.016 88.5274C231.78 87.8739 234.892 83.7159 240.353 76.0532Z" fill="#B28B67"/>
<path fillRule="evenodd" clipRule="evenodd" d="M260.959 64.6115L263.598 64.466C264.705 73.4997 267.5 82.7022 273.916 91.5617L270.959 94.4874C264.879 88.3465 258.933 83.2483 257.857 76.1897C257.495 73.8207 260.204 67.1261 260.959 64.6115Z" fill="#C5CFD6"/>
<path fillRule="evenodd" clipRule="evenodd" d="M246.478 85.3199C253.233 87.9128 258.703 89.3786 262.89 89.7174C263.409 89.7593 263.707 88.9594 263.626 88.3409C262.38 78.7093 261.96 70.4839 263.574 64.4586C262.831 64.6105 261.671 64.3523 260.095 63.6841C254.029 68.7138 250.096 75.296 246.478 85.3199Z" fill="#323337"/>
<path fillRule="evenodd" clipRule="evenodd" d="M259.14 62.8716L260.975 63.3632C260.735 65.9688 253.043 100.063 254.246 112.212L231.74 106.182C234.936 96.2036 242.039 85.0917 248.661 75.975C244.375 78.1793 239.95 82.6745 235.385 89.4606L231.457 87.258C238.18 74.7061 247.262 66.5898 258.703 62.9093C258.737 62.8665 258.771 62.824 258.805 62.7817L258.967 62.8252C259.037 62.8032 259.107 62.7813 259.177 62.7597L259.14 62.8716Z" fill="#DDE3E9"/>
</g>
<path fillRule="evenodd" clipRule="evenodd" d="M342.62 52.4624C344.118 55.0067 346.813 61.0383 346.061 62.2941L339.673 64.0057C339.67 63.9946 339.666 63.9835 339.662 63.9724C337.224 64.3448 334.845 62.8308 334.192 60.3932L332.986 55.8922C332.285 53.2766 333.837 50.5881 336.453 49.8873L336.893 49.7692C339.239 49.1406 341.644 50.3245 342.62 52.4624Z" fill="#191847"/>
<path fillRule="evenodd" clipRule="evenodd" d="M336.449 58.894C335.118 57.9851 334.043 56.722 333.723 55.0697C332.802 50.3087 339.639 49.5783 341.548 51.5944C343.456 53.6106 344.907 59.6329 343.37 60.4964C342.758 60.8408 341.246 60.8046 339.591 60.3347L342.169 66.3729L336.882 67.7895L336.449 58.894Z" fill="#B28B67"/>
<path fillRule="evenodd" clipRule="evenodd" d="M337.667 57.723C338.605 60.251 339.301 63.2387 338.764 64.1361L332.376 65.8478C330.377 59.8139 334.453 61.2658 332.907 55.4949C333.066 55.2298 333.213 54.9699 333.366 54.7389L333.314 54.5711C333.818 52.0302 334.921 50.5319 336.622 50.0763C339.172 49.3928 340.293 50.3535 341.246 51.1686C341.201 53.0493 339.28 53.8408 337.804 55.4012C337.551 55.2892 337.258 55.2598 336.969 55.3374C336.3 55.5167 335.901 56.1996 336.079 56.8628C336.257 57.526 336.943 57.9183 337.612 57.739C337.631 57.734 337.649 57.7287 337.667 57.723Z" fill="#191847"/>
<path fillRule="evenodd" clipRule="evenodd" d="M331.108 108.484C336.579 110.008 341.299 110.77 345.268 110.77C349.237 110.77 352.924 109.596 356.329 107.249C350.975 105.685 346.566 104.902 343.102 104.902C339.638 104.902 335.64 106.096 331.108 108.484Z" fill="#085A55"/>
<path fillRule="evenodd" clipRule="evenodd" d="M350.004 112.967C349.952 112.888 349.907 112.802 349.872 112.709C349.141 110.783 337.428 90.0007 336.261 86.2012H349.448C350.335 89.09 354.328 107.219 354.89 110.836C356.663 116.541 360.314 135.018 360.78 136.298C361.27 137.645 358.512 139.048 357.777 137.392C356.607 134.758 353.82 127.469 352.579 123.019C351.416 118.847 350.468 115.093 350.004 112.967Z" fill="#997659"/>
<path fillRule="evenodd" clipRule="evenodd" d="M339.215 115.504C333.86 116.852 314.273 119.29 312.929 119.672C311.546 120.065 310.334 117.226 312.043 116.611C314.762 115.633 322.256 113.372 326.799 112.449C330.454 111.707 333.788 111.101 336.027 110.747C335.837 104.482 334.97 89.4482 335.539 86.2012H347.207C346.662 89.3148 342.055 112.034 341.199 114.308C340.927 115.12 340.117 115.479 339.215 115.504Z" fill="#B28B67"/>
<path fillRule="evenodd" clipRule="evenodd" d="M312.15 115.834C311.435 115.701 310.911 115.664 310.578 115.723C310.173 115.794 309.593 115.966 308.84 116.238C308.923 116.707 309.668 120.93 311.074 128.905C312.22 129.042 312.774 128.748 312.736 128.024C312.697 127.299 312.672 126.696 312.659 126.215L314.246 119.865C314.276 119.742 314.202 119.619 314.08 119.588C314.078 119.588 314.076 119.587 314.073 119.587L313.089 119.37C312.667 118.768 312.419 118.261 312.347 117.851C312.288 117.517 312.342 117.033 312.507 116.398C312.571 116.154 312.425 115.905 312.181 115.841C312.171 115.838 312.16 115.836 312.15 115.834Z" fill="#E4E4E4"/>
<path fillRule="evenodd" clipRule="evenodd" d="M356.939 137.199C356.684 137.88 356.557 138.389 356.557 138.727C356.557 139.139 356.625 139.739 356.762 140.528C357.239 140.528 361.527 140.528 369.624 140.528C369.959 139.423 369.766 138.826 369.046 138.738C368.325 138.65 367.727 138.57 367.251 138.499L361.273 135.834C361.158 135.783 361.023 135.835 360.972 135.95C360.971 135.952 360.97 135.954 360.969 135.956L360.585 136.888C359.918 137.199 359.376 137.354 358.96 137.354C358.621 137.354 358.153 137.218 357.557 136.944C357.328 136.839 357.057 136.94 356.952 137.169C356.947 137.178 356.943 137.189 356.939 137.199Z" fill="#E4E4E4"/>
<path fillRule="evenodd" clipRule="evenodd" d="M335.576 86.2006C340.718 84.7352 345.583 84.7352 350.171 86.2006C351.767 93.4557 355.646 96.3353 356.328 107.459C348.575 111.296 338.997 104.722 331.015 108.464C328.735 103.229 331.927 90.6223 335.576 86.2006Z" fill="#106A63"/>
<path fillRule="evenodd" clipRule="evenodd" d="M347.741 71.1755L354.787 65.5526C355.813 63.7923 356.881 62.3774 357.99 61.3081C358.346 61.0806 359.001 60.8654 358.568 62.0866C358.135 63.3079 357.735 64.6118 358.116 64.8974C358.496 65.1831 359.211 64.5643 359.693 65.0654C360.015 65.3994 358.756 66.2386 355.916 67.583L351.162 73.7423L347.741 71.1755ZM360.582 72.6072L363.676 70.1317C363.836 68.2278 364.249 67.2113 364.915 67.082C365.386 66.7539 364.898 69.2102 365.835 68.8393C366.773 68.4683 368.838 66.2919 369.311 66.5766C370.009 66.9978 369.755 68.7142 369.261 69.6328C368.338 71.3497 367.445 72.0386 365.131 73.1425C363.922 73.7197 362.671 74.6696 361.38 75.9921L360.582 72.6072Z" fill="#997659"/>
<path fillRule="evenodd" clipRule="evenodd" d="M343.778 70.8991C346.503 70.3889 350.043 69.1731 353.495 66.0342L355.618 69.1508C353.405 72.2697 350.02 75.1083 346.709 75.5972C344.1 75.9825 342.222 73.0914 343.778 70.8991Z" fill="#0D3B39"/>
<path fillRule="evenodd" clipRule="evenodd" d="M348.412 75.6802C351.437 75.8884 356.149 74.183 362.546 70.564C364.852 73.7496 366.073 76.0955 366.207 77.6017C360.89 81.6761 356.112 83.9172 351.995 84.7355C352.557 87.1527 352.668 89.5273 352.039 91.8258C350.747 96.5512 337.963 94.6401 334.045 96.1509C330.055 88.3852 334.38 84.1806 333.458 78.9243C332.447 73.168 335.529 63.49 336.213 63.3695L342.444 62.2708C343.563 66.6057 346.148 71.1448 348.412 75.6802Z" fill="#085A55"/>
<path fillRule="evenodd" clipRule="evenodd" d="M427.411 59.5692C428.081 58.1603 428.365 56.5773 427.833 55.0317C426.298 50.5785 420.248 53.2698 419.633 55.8898C419.018 58.5097 420.721 64.281 422.419 64.2648C423.096 64.2584 424.338 63.4969 425.49 62.3011L426.262 68.6305L431.351 67.2667L427.411 59.5692Z" fill="#D4A181"/>
<path fillRule="evenodd" clipRule="evenodd" d="M425.564 59.7218C426.52 60.7642 427.637 61.4426 428.509 61.209C430.166 60.7651 430.75 58.2349 430.112 55.8538C430.09 55.7701 430.066 55.6874 430.04 55.6058C432.115 56.3388 434.1 58.347 436.419 57.7258C439.573 56.8806 439.121 50.1827 434.714 51.3635C431.717 52.1666 430.36 52.9986 429.262 53.9852C428.823 53.3459 428.281 52.8544 427.703 52.5648C427.557 52.4684 427.352 52.3935 427.099 52.3408C426.944 52.3029 426.787 52.28 426.63 52.2731C425.788 52.1969 424.625 52.2957 423.374 52.5845C423.14 52.6385 422.912 52.697 422.691 52.7595C422.375 51.5922 421.173 50.9004 420.004 51.2136C418.833 51.5275 418.138 52.7314 418.451 53.9027C418.755 55.0354 419.891 55.7227 421.025 55.4829C421.717 55.5088 422.578 55.4336 423.505 55.2505C423.506 55.6069 423.559 55.9977 423.673 56.4248C423.774 56.8019 423.923 57.1907 424.109 57.5762C424.243 57.2884 424.466 57.0643 424.735 56.9924C425.485 56.7914 426.172 57.2687 426.348 57.9239C426.571 58.7556 426.252 59.4859 425.564 59.7218Z" fill="#191847"/>
<path fillRule="evenodd" clipRule="evenodd" d="M437.845 86.6758L429.802 114.39L426.019 135.198H422.223L426.013 86.6758H437.845Z" fill="#BA8B72"/>
<path fillRule="evenodd" clipRule="evenodd" d="M441.459 86.6758C440.898 101.073 441.119 108.926 441.245 110.234C441.37 111.542 442.084 120.302 446.942 135.637H442.993C436.559 120.926 434.312 112.166 433.574 110.234C432.836 108.302 430.657 100.449 427.474 86.6758H441.459Z" fill="#D4A181"/>
<path fillRule="evenodd" clipRule="evenodd" d="M438.017 86.6758C435.925 96.2122 432.306 111.435 427.162 132.344H421.609C421.198 110.883 422.943 96.7579 425.965 86.6758H438.017Z" fill="#69A1AC"/>
<path fillRule="evenodd" clipRule="evenodd" d="M441.487 86.6758C440.937 101.073 442.361 115.257 446.773 132.568H440.848C434.402 118.076 429.781 103.962 426.624 86.6758H441.487Z" fill="#89C5CC"/>
<path fillRule="evenodd" clipRule="evenodd" d="M447.505 138.491L447.287 134.978C446.011 135.351 444.413 135.205 442.493 134.539C440.429 136.001 437.83 137 434.697 137.535C434.457 137.576 434.297 137.802 434.338 138.041C434.34 138.057 434.344 138.072 434.348 138.087L434.649 139.15H442.493H447.069L447.505 138.491Z" fill="#191847"/>
<path fillRule="evenodd" clipRule="evenodd" d="M426.866 138.491L426.648 134.978C425.373 135.351 423.775 135.205 421.855 134.539C419.79 136.001 417.191 137 414.058 137.535C413.819 137.576 413.658 137.802 413.699 138.041C413.702 138.057 413.705 138.072 413.709 138.087L414.011 139.15H421.855H426.43L426.866 138.491Z" fill="#191847"/>
<path fillRule="evenodd" clipRule="evenodd" d="M422.135 74.3326L413.905 71.5455C412.396 70.2835 410.964 69.3493 409.608 68.7429C409.21 68.6537 408.546 68.6743 409.341 69.6419C410.136 70.6096 410.928 71.6631 410.678 72.0485C410.428 72.4338 409.578 72.1071 409.307 72.7219C409.126 73.1318 410.542 73.4793 413.555 73.7644L419.888 77.796L422.135 74.3326ZM410.993 79.8733L407.377 78.6436C406.604 76.9651 405.895 76.177 405.249 76.2794C404.715 76.1366 405.967 78.2089 404.997 78.1812C404.026 78.1535 401.439 76.8561 401.106 77.2709C400.613 77.8845 401.41 79.3614 402.16 80.0337C403.561 81.2902 404.597 81.6218 407.054 81.8619C408.339 81.9874 409.784 82.4383 411.388 83.2147L410.993 79.8733Z" fill="#D4A181"/>
<path fillRule="evenodd" clipRule="evenodd" d="M425.628 72.7717C422.995 73.2074 419.391 73.2703 415.233 71.5556L414.341 75.0904C417.373 77.1959 421.371 78.6599 424.528 78.0115C427.015 77.5006 427.759 74.2517 425.628 72.7717Z" fill="#0D3B39"/>
<path fillRule="evenodd" clipRule="evenodd" d="M423.015 78.65C420.347 79.8381 415.522 79.8425 408.541 78.6633C407.506 82.3215 407.177 84.8575 407.553 86.2714C413.707 88.2213 418.768 88.6821 422.763 88.0671C423.053 90.4505 423.736 92.6465 425.064 94.5291C427.793 98.3994 438.725 92.4417 442.769 92.522C443.814 84.1434 438.513 81.748 437.613 76.6636C436.627 71.0957 430.644 63.3126 429.986 63.4286L423.987 64.4865C424.406 68.7977 423.566 73.7785 423.015 78.65Z" fill="#085A55"/>
<path fillRule="evenodd" clipRule="evenodd" d="M520.396 57.3265C521.408 56.1389 522.092 54.6836 521.978 53.0528C521.648 48.3542 515.108 49.3879 513.835 51.7593C512.563 54.1308 512.714 60.1462 514.359 60.57C515.014 60.7391 516.411 60.325 517.833 59.4681L516.941 65.7816H522.21L520.396 57.3265Z" fill="#B28B67"/>
<path fillRule="evenodd" clipRule="evenodd" d="M516.159 52.1027C516.874 52.5027 517.383 53.2522 517.996 54.2353C518.145 54.1767 518.308 54.1445 518.478 54.1445C519.205 54.1445 519.795 54.7343 519.795 55.4618C519.795 55.8312 519.643 56.165 519.398 56.4042C519.703 56.8345 520.044 57.2839 520.436 57.7477C521.897 56.8713 522.983 54.3169 521.588 51.8511C520.388 46.9117 513.588 49.9775 512.28 49.1445C511.994 50.9369 512.916 52.3821 516.159 52.1027Z" fill="#191847"/>
<path fillRule="evenodd" clipRule="evenodd" d="M522.422 84.8418L511.646 112.117L504.418 135.175H501.564L512.613 84.8418L522.422 84.8418Z" fill="#997659"/>
<path fillRule="evenodd" clipRule="evenodd" d="M524.592 84.8418C524.707 94.4264 526.38 107.33 526.647 107.928C526.826 108.326 532.979 113.391 545.107 123.123L543.142 125.227C528.831 116.883 521.345 112.155 520.683 111.042C519.689 109.372 516.456 94.0112 513.859 84.8418H524.592Z" fill="#B28B67"/>
<path fillRule="evenodd" clipRule="evenodd" d="M545.37 122.42C546.03 122.653 546.485 122.875 546.734 123.084C547.038 123.338 547.438 123.76 547.935 124.35C547.64 124.702 544.986 127.864 539.975 133.836C538.953 133.399 538.633 132.887 539.013 132.301C539.394 131.716 539.706 131.225 539.948 130.83L541.682 124.772C541.715 124.655 541.837 124.588 541.954 124.621C541.956 124.622 541.957 124.622 541.959 124.623L542.885 124.916C543.527 124.617 543.977 124.314 544.235 124.006C544.444 123.757 544.633 123.327 544.8 122.718C544.865 122.484 545.106 122.346 545.34 122.411C545.35 122.414 545.36 122.417 545.37 122.42Z" fill="#E4E4E4"/>
<path fillRule="evenodd" clipRule="evenodd" d="M505.587 134.11C505.832 134.766 505.955 135.256 505.955 135.582C505.955 135.978 505.889 136.556 505.757 137.315C505.298 137.315 501.17 137.315 493.374 137.315C493.052 136.251 493.238 135.677 493.931 135.592C494.624 135.507 495.2 135.431 495.659 135.362L501.415 132.796C501.525 132.747 501.655 132.797 501.705 132.908C501.705 132.909 501.706 132.911 501.707 132.913L502.077 133.811C502.719 134.11 503.24 134.26 503.642 134.26C503.968 134.26 504.418 134.128 504.992 133.865C505.213 133.764 505.474 133.861 505.575 134.081C505.579 134.091 505.583 134.1 505.587 134.11Z" fill="#E4E4E4"/>
<path fillRule="evenodd" clipRule="evenodd" d="M515.177 132.8L501.607 131.328L511.664 84.8418H523.817L515.177 132.8Z" fill="#69A1AC"/>
<path fillRule="evenodd" clipRule="evenodd" d="M542.301 119.73L533.4 130.265C524.025 120.026 518.559 113.345 517.003 110.222C515.447 107.099 514.048 98.6388 512.806 84.8418H526.489C527.167 96.9798 527.624 103.331 527.86 103.896C528.097 104.461 532.91 109.739 542.301 119.73Z" fill="#89C5CC"/>
<path fillRule="evenodd" clipRule="evenodd" d="M502.613 82.1876L496.16 88.4417C494.283 89.2374 492.744 90.116 491.545 91.0775C491.275 91.4007 490.982 92.0199 492.251 91.7428C493.519 91.4657 494.867 91.2309 495.105 91.6409C495.344 92.0508 494.641 92.6791 495.082 93.2156C495.375 93.5733 496.363 92.4355 498.046 89.8024L504.756 85.8719L502.613 82.1876ZM534.165 76.5273L529.178 76.5459C532.976 88.7745 534.993 95.1771 535.227 95.7539C535.754 97.0517 534.639 99.0283 534.162 100.09C535.716 100.781 535.55 98.2233 537.51 99.1291C539.298 99.9559 540.659 101.454 542.726 100.187C542.98 100.031 543.258 99.4449 542.585 98.9866C540.909 97.8448 538.494 95.8465 538.168 95.1888C537.723 94.2918 536.389 88.0713 534.165 76.5273Z" fill="#B28B67"/>
<path fillRule="evenodd" clipRule="evenodd" d="M518.967 62.4709L516.997 62.1353C513.895 73.0326 497.953 80.4607 496.974 84.5344C496.615 86.0284 497.697 86.7836 497.138 87.2386L499.698 89.1007C500.132 88.5981 501.057 89.5174 502.989 88.8743C504.921 88.2313 518.967 75.3743 518.967 62.4709Z" fill="#CDD422"/>
<path fillRule="evenodd" clipRule="evenodd" d="M515.654 63.9106C515.884 78.3448 507.486 82.0253 509.356 87.8141C510.901 92.5934 525.679 97.7312 528.237 93.0463C529.272 91.1499 529.741 88.8564 529.795 86.3628C530.448 88.2785 530.965 89.9277 531.346 91.3104C532.001 93.6957 534.545 94.0749 534.545 94.9938L537.895 94.0749C537.668 92.8265 539.247 92.2186 538.824 89.4296C536.926 76.9332 531.828 67.8749 523.528 62.2548L523.44 61.008C523.406 60.5245 522.987 60.16 522.503 60.1936L522.503 60.1928L516.302 60.6228C515.818 60.6564 515.453 61.0759 515.487 61.5598L515.487 61.5605L515.654 63.9106Z" fill="#D6DE21"/>
<path fillRule="evenodd" clipRule="evenodd" d="M608.21 56.8302C609.26 55.5968 609.972 54.0852 609.853 52.3914C609.51 47.511 602.717 48.5846 601.395 51.0478C600.074 53.511 600.231 59.759 601.939 60.1992C602.62 60.3748 604.071 59.9447 605.548 59.0546L604.621 65.6123H610.094L608.21 56.8302Z" fill="#B28B67"/>
<path fillRule="evenodd" clipRule="evenodd" d="M598.97 47.633C599.083 47.2346 599.388 46.8935 599.799 46.7923C599.899 46.7678 600.002 46.7579 600.104 46.762C600.141 46.7635 600.151 46.7741 600.168 46.7483C600.181 46.7293 600.181 46.6827 600.187 46.6603C600.203 46.5906 600.223 46.5218 600.249 46.4548C600.335 46.2262 600.479 46.0239 600.653 45.8535C600.979 45.5347 601.419 45.3147 601.876 45.2749C602.127 45.2531 602.375 45.2937 602.612 45.3752C602.734 45.4173 602.853 45.4698 602.969 45.5278C603.003 45.5453 603.116 45.6308 603.151 45.6252C603.19 45.6191 603.268 45.5232 603.299 45.4991C603.687 45.2014 604.166 45.0844 604.649 45.088C605.195 45.092 605.72 45.1193 606.175 45.4518C606.271 45.5222 606.363 45.5993 606.45 45.6804C606.496 45.7232 606.541 45.7675 606.583 45.8137C606.609 45.8415 606.634 45.87 606.658 45.8993C606.699 45.9489 606.692 45.9652 606.749 45.9306C606.968 45.7975 607.222 45.7353 607.478 45.7667C607.629 45.7854 607.777 45.831 607.917 45.8909C607.965 45.9113 608.075 45.9928 608.126 45.9936C608.177 45.9943 608.286 45.9189 608.338 45.8997C608.618 45.796 608.921 45.7705 609.216 45.8184C609.521 45.8678 609.82 45.9892 610.078 46.1571C610.202 46.2378 610.31 46.3273 610.397 46.4473C610.434 46.4992 610.468 46.554 610.511 46.602C610.536 46.6302 610.585 46.6591 610.598 46.6947C610.59 46.6733 610.931 46.5419 610.964 46.5335C611.135 46.4887 611.309 46.4978 611.477 46.5531C611.793 46.6569 612.064 46.8898 612.287 47.1286C612.402 47.2513 612.502 47.3869 612.587 47.5313C612.628 47.6005 612.665 47.6717 612.699 47.7443C612.716 47.7796 612.727 47.8236 612.749 47.8553C612.777 47.8962 612.796 47.897 612.847 47.9148C613.105 48.0053 613.34 48.1584 613.52 48.3654C613.701 48.5748 613.819 48.8326 613.868 49.1042C613.871 49.1202 613.873 49.1864 613.882 49.1951C613.895 49.207 613.947 49.2017 613.966 49.2041C614.034 49.212 614.102 49.2239 614.169 49.2397C614.292 49.2688 614.411 49.3116 614.524 49.3676C614.965 49.5858 615.281 49.9949 615.435 50.4552C615.597 50.9383 615.594 51.4918 615.401 51.9659C615.369 52.0425 615.332 52.1168 615.288 52.1871C615.262 52.2303 615.253 52.2304 615.27 52.2757C615.29 52.3261 615.325 52.375 615.348 52.4242C615.424 52.5849 615.476 52.7553 615.509 52.9293C615.564 53.2148 615.591 53.5148 615.537 53.8024C615.512 53.9359 615.469 54.0665 615.402 54.1855C615.368 54.2461 615.329 54.3036 615.284 54.3569C615.261 54.3845 615.236 54.4109 615.211 54.4362C615.196 54.4506 615.176 54.4632 615.164 54.4794C615.133 54.5187 615.127 54.4864 615.143 54.5441C615.165 54.6248 615.215 54.7045 615.245 54.7831C615.277 54.864 615.305 54.9461 615.332 55.029C615.384 55.1968 615.429 55.3677 615.457 55.5415C615.511 55.8752 615.501 56.2307 615.344 56.537C615.276 56.668 615.179 56.7829 615.062 56.8723C615.004 56.916 614.942 56.9537 614.877 56.9846C614.843 57.0006 614.8 57.0074 614.785 57.0399C614.769 57.0748 614.793 57.1441 614.799 57.1831C614.847 57.5225 614.871 57.8788 614.771 58.2114C614.678 58.5177 614.473 58.7882 614.207 58.9673C613.692 59.3147 612.998 59.2951 612.456 59.017C612.315 58.9445 612.183 58.8545 612.065 58.7483C611.765 59.1521 611.148 59.1393 610.71 59.0242C610.163 58.8809 609.725 58.5012 609.473 58.0022C609.128 58.4225 608.403 58.2861 608.164 57.8302C608.105 57.7186 608.07 57.5956 608.053 57.4712C608.044 57.4057 608.05 57.3397 608.043 57.2748C608.034 57.1921 607.979 57.1117 607.947 57.0316C607.886 56.8759 607.847 56.715 607.846 56.547C607.845 56.4593 607.856 56.3738 607.864 56.2868C607.872 56.2084 607.85 56.1355 607.838 56.0581C607.978 56.0812 608.148 56.0434 608.28 56.0028C608.41 55.963 608.531 55.858 608.622 55.7621C608.835 55.5395 608.964 55.2477 609.053 54.9573C609.248 54.3198 609.168 53.555 608.527 53.2052C608.228 53.0422 607.333 53.0428 606.977 53.1233C606.603 53.208 606.179 54.0334 606.158 54.1109C606.146 54.1589 606.152 54.2184 606.108 54.2504C606.011 54.3207 605.851 54.1986 605.78 54.1384C605.656 54.0344 605.568 53.8961 605.492 53.7558C605.326 53.4503 605.192 53.1227 605.097 52.7882C605.025 52.5303 604.978 52.2644 604.883 52.0131C604.788 51.7631 604.638 51.5396 604.406 51.398C604.153 51.2439 603.863 51.1627 603.586 51.0659C603.31 50.9699 603.04 50.8526 602.827 50.649C602.78 50.6042 602.734 50.5566 602.697 50.5039C602.667 50.4623 602.637 50.3826 602.592 50.3562C602.521 50.3152 602.418 50.4219 602.357 50.4607C602.056 50.6519 601.805 50.9187 601.602 51.21C601.401 51.4998 601.236 51.7787 601.101 52.1023C601.002 52.3423 600.939 52.6496 600.764 52.8463C600.686 52.9341 600.104 52.9873 599.916 52.9106C599.727 52.8339 599.516 52.6348 599.453 52.5101C599.388 52.3824 599.373 52.2421 599.4 52.1023C599.417 52.02 599.45 51.9432 599.468 51.8624C599.483 51.7945 599.497 51.7304 599.53 51.6682C599.593 51.5504 599.7 51.4658 599.829 51.4304C599.695 51.3066 599.583 51.1586 599.506 50.9931C599.427 50.8211 599.359 50.6121 599.34 50.4234C599.324 50.2701 599.348 50.1113 599.432 49.9796C599.52 49.8414 599.676 49.7513 599.811 49.6651C599.605 49.5039 599.428 49.3078 599.283 49.0907C599.001 48.6685 598.827 48.1363 598.97 47.633Z" fill="#191847"/>
<path fillRule="evenodd" clipRule="evenodd" d="M611.915 84.5449L600.95 113.559L593.265 134.943H588.882L599.447 84.5449L611.915 84.5449Z" fill="#085A55"/>
<path fillRule="evenodd" clipRule="evenodd" d="M614.626 84.5449C614.745 94.5001 614.659 107.903 614.936 108.524C615.122 108.937 620.88 113.651 632.212 122.665L629.953 126.506C616.5 117.83 609.429 112.914 608.741 111.758C607.709 110.024 602.526 94.0689 599.829 84.5449H614.626Z" fill="#106A63"/>
<path fillRule="evenodd" clipRule="evenodd" d="M636.185 125.25L632.37 122.347L629.292 126.015C629.055 128.781 628.139 131.882 626.545 135.32L627.243 135.907L632.814 129.268L634.37 126.704L634.719 126.997L636.185 125.25Z" fill="#191847"/>
<path fillRule="evenodd" clipRule="evenodd" d="M593.672 139.049L593.444 134.26H588.655C586.384 135.856 583.419 137.148 579.761 138.137V139.049H588.427L591.391 138.593V139.049H593.672Z" fill="#191847"/>
<path fillRule="evenodd" clipRule="evenodd" d="M592.304 75.4921L583.3 74.2639C581.499 73.262 579.842 72.5838 578.329 72.2292C577.904 72.2168 577.226 72.3715 578.235 73.2126C579.244 74.0537 580.268 74.9841 580.088 75.4329C579.908 75.8818 578.97 75.7148 578.815 76.4052C578.711 76.8654 580.234 76.9402 583.383 76.6295L590.689 79.526L592.304 75.4921ZM620.589 77.5761L615.595 77.5949C621.071 89.9171 623.926 96.3689 624.161 96.9501C624.688 98.2578 623.572 100.25 623.094 101.32C624.649 102.016 624.484 99.4384 626.446 100.351C628.236 101.184 629.599 102.694 631.668 101.417C631.922 101.26 632.201 100.669 631.527 100.208C629.849 99.057 627.431 97.0434 627.105 96.3806C626.659 95.4767 624.487 89.2086 620.589 77.5761Z" fill="#997659"/>
<path fillRule="evenodd" clipRule="evenodd" d="M606.91 61.7372L603.001 61.9977C602.038 70.7094 596.793 76.212 585.049 74.3492L583.489 85.5679C594.465 86.9863 604.091 82.5921 606.064 70.6946C606.574 67.6147 606.978 64.4094 606.91 61.7372Z" fill="#AFB9C5"/>
<path fillRule="evenodd" clipRule="evenodd" d="M608.84 60.6013L602.916 61.958C602.916 72.147 599.67 78.6477 598.006 86.1389H614.005C614.23 88.7275 614.368 91.388 614.44 94.1206H626.42C623.705 79.677 617.976 68.5027 609.231 60.5977H608.843L608.84 60.6013Z" fill="#C5CFD6"/>
<path fillRule="evenodd" clipRule="evenodd" d="M611.48 71.6035C611.892 77.9526 611.65 82.7979 610.752 86.1394H614.004C613.557 81.0115 612.77 76.1662 611.48 71.6035Z" fill="black" fill-opacity="0.1"/>
<path fillRule="evenodd" clipRule="evenodd" d="M702.505 86.4064C702.094 91.9969 675.604 108.456 675.45 108.918C675.381 109.123 678.13 115.611 683.695 128.382L681.38 129.278C672.843 115.753 668.794 108.27 669.232 106.829C669.86 104.765 676.711 97.9777 689.785 86.4658L702.505 86.4064Z" fill="#B28B67"/>
<path fillRule="evenodd" clipRule="evenodd" d="M683.085 125.498L679.304 126.869C671.332 117.909 668.208 110.516 668.777 106.75C669.157 104.239 675.985 97.4622 689.26 86.4208L702.776 86.4208C702.315 99.3675 677.762 108.968 677.433 109.519C677.105 110.071 680.337 115.475 683.085 125.498Z" fill="#2F3676"/>
<path fillRule="evenodd" clipRule="evenodd" d="M684.553 127.955C685.026 128.508 685.32 128.943 685.436 129.261C685.576 129.647 685.717 130.235 685.858 131.023C685.41 131.186 681.381 132.652 673.772 135.422C673.08 134.498 673.057 133.871 673.704 133.542C674.35 133.213 674.885 132.934 675.308 132.704L680.015 128.155C680.105 128.067 680.25 128.07 680.337 128.161C680.339 128.162 680.34 128.164 680.342 128.165L681.021 128.91C681.754 128.974 682.317 128.935 682.708 128.792C683.026 128.676 683.419 128.388 683.886 127.927C684.066 127.75 684.354 127.752 684.531 127.931C684.539 127.939 684.546 127.947 684.553 127.955Z" fill="#E4E4E4"/>
<path fillRule="evenodd" clipRule="evenodd" d="M699.46 86.4062L711.26 114.626L722.858 138.484H720.122L690.184 86.4062H699.46Z" fill="#997659"/>
<path fillRule="evenodd" clipRule="evenodd" d="M723.022 137.406C723.277 138.087 723.404 138.596 723.404 138.934C723.404 139.346 723.336 139.946 723.199 140.735C722.722 140.735 718.434 140.735 710.336 140.735C710.002 139.63 710.195 139.033 710.915 138.945C711.635 138.857 712.234 138.777 712.71 138.706L718.688 136.041C718.803 135.99 718.938 136.042 718.989 136.157C718.99 136.159 718.991 136.161 718.992 136.163L719.376 137.095C720.043 137.406 720.585 137.561 721.001 137.561C721.34 137.561 721.808 137.425 722.404 137.151C722.633 137.046 722.904 137.147 723.009 137.376C723.014 137.386 723.018 137.396 723.022 137.406Z" fill="#E4E4E4"/>
<path fillRule="evenodd" clipRule="evenodd" d="M721.811 133.528L715.73 134.664C711.029 127.779 691.354 99.5483 689.197 86.4062H702.733C709.937 95.9066 717.329 126.529 721.811 133.528Z" fill="#5C63AB"/>
<path fillRule="evenodd" clipRule="evenodd" d="M695.237 58.9478C695.961 57.5073 696.289 55.8815 695.767 54.2813C694.265 49.6707 687.931 52.3468 687.239 55.0353C686.547 57.7238 688.198 63.6946 689.961 63.7048C690.664 63.7089 691.968 62.9443 693.188 61.731L693.861 68.2618L699.171 66.9377L695.237 58.9478Z" fill="#B28B67"/>
<path fillRule="evenodd" clipRule="evenodd" d="M687.003 56.2233C686.979 55.9031 687.022 55.5301 687.054 55.2137C687.094 54.8059 687.212 54.4178 687.356 54.044C687.625 53.3404 687.994 52.6739 688.437 52.0864C689.247 51.0133 690.42 50.2182 691.729 50.0552C692.389 49.9729 693.072 50.0601 693.702 50.3315C694.272 50.5768 694.866 50.9986 695.496 50.8826C696.18 50.7564 696.652 50.0123 697.102 49.5131C697.609 48.9503 698.183 48.4892 698.867 48.1952C700.012 47.7026 701.233 47.8228 702.298 48.5886C703.432 49.4035 704.446 50.7599 704.212 52.2723C704.169 52.5534 704.085 52.8023 703.932 53.0293C703.791 53.2375 703.558 53.4799 703.55 53.7587C703.541 54.0551 703.863 54.3543 704.015 54.5817C704.234 54.9074 704.434 55.2567 704.493 55.6553C704.591 56.3098 704.337 57.0209 704.014 57.5476C703.685 58.0836 703.211 58.4623 702.667 58.718C702.303 58.8888 701.923 59.0278 701.527 59.0963C701.331 59.1303 701.148 59.1196 700.95 59.124C700.758 59.1282 700.669 59.2014 700.539 59.3386C699.938 59.9759 699.212 60.3454 698.368 60.4833C697.656 60.5997 696.81 60.6326 696.123 60.3006C695.359 59.932 695.191 59.2031 695.146 58.3906C695.008 58.5073 694.584 58.664 694.767 58.2904C694.84 58.1425 695.023 58.0441 695.137 57.9392C695.271 57.8171 695.4 57.6698 695.486 57.5035C695.832 56.8317 695.064 55.8315 694.41 55.7982C693.439 55.7486 693.552 57.0647 692.989 57.5527C692.666 57.8334 692.214 57.6727 691.871 57.4793C691.411 57.2201 691.041 56.8171 690.704 56.3972C690.426 56.0514 690.16 55.6971 689.879 55.3541C689.748 55.1939 689.323 54.7548 689.421 54.5123C688.743 54.5457 688.089 54.9917 687.619 55.4799C687.425 55.6817 687.289 55.8846 687.23 56.1702C687.217 56.2314 687.2 56.408 687.13 56.4326C686.999 56.4784 687.009 56.3038 687.003 56.2233Z" fill="#191847"/>
<path fillRule="evenodd" clipRule="evenodd" d="M680.754 84.4339L673.573 89.8754C671.61 90.4395 669.973 91.1273 668.664 91.9387C668.356 92.2276 667.988 92.8083 669.283 92.6865C670.578 92.5646 671.945 92.4944 672.132 92.9313C672.319 93.3683 671.543 93.9082 671.915 94.4957C672.163 94.8873 673.285 93.8749 675.28 91.4584L682.431 88.3607L680.754 84.4339ZM708.683 84.1299L703.918 84.2317C707.025 93.6311 708.701 98.6179 708.945 99.1921C709.496 100.484 708.414 102.485 707.955 103.558C709.522 104.223 709.312 101.662 711.289 102.536C713.094 103.334 714.482 104.812 716.529 103.506C716.781 103.345 717.049 102.752 716.368 102.304C714.67 101.189 712.217 99.2278 711.879 98.5741C711.418 97.6826 710.352 92.8678 708.683 84.1299Z" fill="#B28B67"/>
<path fillRule="evenodd" clipRule="evenodd" d="M694.794 64.4712L692.817 64.1691C685.611 70.5851 682.817 82.7182 673.962 89.2743L676.167 91.8987C691.689 89.7106 695.288 74.9078 694.794 64.4712Z" fill="#0C5C56"/>
<path fillRule="evenodd" clipRule="evenodd" d="M703.82 88.9767C695.914 89.1147 690.099 89.2162 686.374 89.2812C685.577 89.2951 685.707 88.1471 685.812 87.5671C687.026 80.8732 692.092 73.592 691.926 64.0965L696.945 63.2235C701.223 69.8119 702.806 77.9879 703.82 88.9767Z" fill="#DDE3E9"/>
<path fillRule="evenodd" clipRule="evenodd" d="M703.342 69.6608C704.07 69.439 704.64 68.9413 705.053 68.1678C706.835 64.8333 706.139 63.0267 704.163 62.4633C702.187 61.9 700.455 63.1616 697.324 63.2163C697.153 63.2193 696.998 63.2326 696.856 63.2563L695.282 63.3733C691.029 78.6947 689.96 88.886 692.075 93.9473L705.806 93.7076C706.653 95.5811 707.459 97.1557 708.225 98.4315L711.967 98.3662C712.121 87.0308 709.246 77.4623 703.342 69.6608Z" fill="#127B74"/>
<path fillRule="evenodd" clipRule="evenodd" d="M702.68 85.9311C702.311 89.534 701.654 92.1557 700.711 93.7961L705.807 93.7071C704.819 91.5217 703.777 88.9297 702.68 85.9311Z" fill="black" fill-opacity="0.1"/>
<path fillRule="evenodd" clipRule="evenodd" d="M783.842 63.728C781.436 63.728 780.561 60.8474 779.194 59.2666C778.216 58.1356 776.547 58.4728 776.053 56.8894C774.811 52.9078 778.136 50.1055 782.474 50.1055C786.812 50.1055 789.737 52.5632 790.369 56.2578C791 59.9525 788.181 63.728 783.842 63.728Z" fill="#191847"/>
<path fillRule="evenodd" clipRule="evenodd" d="M787 86.7363L779.078 112.636L775.24 134.662H772.231L776.286 86.7363H787Z" fill="#997659"/>
<path fillRule="evenodd" clipRule="evenodd" d="M775.91 133.979C776.146 134.608 776.264 135.078 776.264 135.39C776.264 135.77 776.2 136.324 776.074 137.052C775.634 137.052 771.676 137.052 764.2 137.052C763.891 136.032 764.069 135.482 764.734 135.4C765.399 135.319 765.951 135.245 766.391 135.18L771.91 132.719C772.016 132.672 772.141 132.72 772.188 132.826C772.189 132.828 772.19 132.83 772.19 132.832L772.545 133.692C773.161 133.979 773.661 134.123 774.045 134.123C774.358 134.123 774.79 133.997 775.341 133.744C775.552 133.647 775.802 133.74 775.899 133.951C775.903 133.96 775.907 133.97 775.91 133.979Z" fill="#E4E4E4"/>
<path fillRule="evenodd" clipRule="evenodd" d="M788.053 86.7363L784.684 99.932H774.396L775.93 86.7363H788.053Z" fill="#69A1AC"/>
<path fillRule="evenodd" clipRule="evenodd" d="M768.465 83.3926L762.501 89.2105C760.766 89.9506 759.344 90.7679 758.236 91.6624C757.986 91.963 757.715 92.5391 758.888 92.2813C760.06 92.0235 761.305 91.8051 761.526 92.1865C761.746 92.5679 761.097 93.1522 761.504 93.6513C761.776 93.9841 762.689 92.9257 764.244 90.4762L770.446 86.8199L768.465 83.3926ZM794.936 84.2131L790.536 84.2304C793.253 92.9996 794.719 97.6525 794.936 98.189C795.423 99.3963 794.392 101.235 793.951 102.223C795.387 102.865 795.234 100.486 797.045 101.329C798.698 102.098 799.956 103.492 801.866 102.313C802.101 102.168 802.358 101.623 801.736 101.196C800.187 100.134 797.955 98.2751 797.653 97.6633C797.242 96.8289 796.336 92.3455 794.936 84.2131Z" fill="#B28B67"/>
<path fillRule="evenodd" clipRule="evenodd" d="M782.433 65.7531L780.612 65.4408C777.478 73.2704 772.006 80.3845 764.196 86.7832L770.098 93.953C777.906 84.842 782.72 75.4421 782.433 65.7531Z" fill="#191847"/>
<path fillRule="evenodd" clipRule="evenodd" d="M790.369 88.6309H774.159C777.914 79.4993 779.792 71.7422 779.792 65.3594L784.682 64.6309C788.525 70.8116 789.61 78.4213 790.369 88.6309Z" fill="#DDE3E9"/>
</g>
<defs>
<clipPath id="clip0_5004_10125">
<rect width="80" height="101.053" fill="white" transform="translate(215 40)"/>
</clipPath>
</defs>
</svg>
