<svg width="41" height="40" viewBox="0 0 41 40" fill="none" xmlns="http://www.w3.org/2000/svg">
<path d="M27.3335 20C27.3335 25.4788 26.4999 30.4166 25.1686 33.9666C24.5023 35.7434 23.721 37.1466 22.8787 38.0966C22.0359 39.0472 21.1747 39.5 20.3335 39.5C19.4923 39.5 18.6311 39.0472 17.7883 38.0966C16.946 37.1466 16.1647 35.7434 15.4984 33.9666C14.1671 30.4166 13.3335 25.4788 13.3335 20C13.3335 14.5212 14.1671 9.58342 15.4984 6.03343C16.1647 4.25658 16.946 2.8534 17.7883 1.9034C18.6311 0.952827 19.4923 0.5 20.3335 0.5C21.1747 0.5 22.0359 0.952827 22.8787 1.9034C23.721 2.8534 24.5023 4.25658 25.1686 6.03343C26.4999 9.58342 27.3335 14.5212 27.3335 20Z" stroke="url(#paint0_linear_1786_122286)"/>
<path d="M20.3335 13C25.8123 13 30.7501 13.8336 34.3001 15.1649C36.0769 15.8312 37.4801 16.6125 38.4301 17.4548C39.3807 18.2976 39.8335 19.1588 39.8335 20C39.8335 20.8412 39.3807 21.7024 38.4301 22.5452C37.4801 23.3875 36.0769 24.1688 34.3001 24.8351C30.7501 26.1664 25.8123 27 20.3335 27C14.8547 27 9.91692 26.1664 6.36692 24.8351C4.59008 24.1688 3.18689 23.3875 2.2369 22.5452C1.28632 21.7024 0.833496 20.8412 0.833496 20C0.833496 19.1588 1.28632 18.2976 2.2369 17.4548C3.18689 16.6125 4.59008 15.8312 6.36692 15.1649C9.91692 13.8336 14.8547 13 20.3335 13Z" stroke="url(#paint1_linear_1786_122286)"/>
<path d="M25.2832 15.0502C29.1573 18.9243 32.0594 23.0053 33.6283 26.4569C34.4136 28.1845 34.8533 29.7292 34.9294 30.9965C35.0057 32.2646 34.7169 33.1938 34.1221 33.7886C33.5273 34.3834 32.5981 34.6722 31.33 34.5959C30.0627 34.5198 28.518 34.0801 26.7904 33.2948C23.3388 31.7259 19.2578 28.8238 15.3837 24.9497C11.5097 21.0757 8.60756 16.9946 7.03867 13.5431C6.25341 11.8155 5.8137 10.2708 5.73753 9.0035C5.6613 7.7354 5.95009 6.80622 6.5449 6.21141C7.13972 5.61659 8.0689 5.32781 9.33699 5.40403C10.6043 5.48021 12.149 5.91991 13.8766 6.70517C17.3281 8.27406 21.4092 11.1762 25.2832 15.0502Z" stroke="url(#paint2_linear_1786_122286)"/>
<path d="M6.5449 33.7886C5.95009 33.1938 5.6613 32.2646 5.73753 30.9965C5.8137 29.7292 6.25341 28.1845 7.03867 26.4569C8.60756 23.0053 11.5097 18.9243 15.3837 15.0502C19.2578 11.1762 23.3388 8.27406 26.7904 6.70517C28.518 5.91991 30.0627 5.48021 31.33 5.40403C32.5981 5.32781 33.5273 5.61659 34.1221 6.21141C34.7169 6.80622 35.0057 7.7354 34.9294 9.0035C34.8533 10.2708 34.4136 11.8155 33.6283 13.5431C32.0594 16.9946 29.1573 21.0757 25.2832 24.9497C21.4092 28.8238 17.3281 31.7259 13.8766 33.2948C12.149 34.0801 10.6043 34.5198 9.33699 34.5959C8.0689 34.6722 7.13972 34.3834 6.5449 33.7886Z" stroke="url(#paint3_linear_1786_122286)"/>
<defs>
<linearGradient id="paint0_linear_1786_122286" x1="20.3335" y1="0" x2="20.3335" y2="40" gradientUnits="userSpaceOnUse">
<stop/>
<stop offset="0.965" stop-opacity="0.35"/>
<stop offset="1" stop-color="white" stop-opacity="0"/>
</linearGradient>
<linearGradient id="paint1_linear_1786_122286" x1="0.333496" y1="20" x2="40.3335" y2="20" gradientUnits="userSpaceOnUse">
<stop/>
<stop offset="1" stop-opacity="0.35"/>
</linearGradient>
<linearGradient id="paint2_linear_1786_122286" x1="6.19135" y1="5.85786" x2="34.4756" y2="34.1421" gradientUnits="userSpaceOnUse">
<stop/>
<stop offset="0.97" stop-opacity="0.35"/>
<stop offset="1" stop-opacity="0"/>
</linearGradient>
<linearGradient id="paint3_linear_1786_122286" x1="34.4757" y1="5.85786" x2="6.19139" y2="34.1421" gradientUnits="userSpaceOnUse">
<stop/>
<stop offset="1" stop-opacity="0.35"/>
</linearGradient>
</defs>
</svg>
